<?xml version="1.0" standalone="no"?>
<!DOCTYPE svg PUBLIC "-//W3C//DTD SVG 20010904//EN"
 "http://www.w3.org/TR/2001/REC-SVG-20010904/DTD/svg10.dtd">
<svg version="1.0" xmlns="http://www.w3.org/2000/svg"
 width="700.000000pt" height="700.000000pt" viewBox="0 0 700.000000 700.000000"
 preserveAspectRatio="xMidYMid meet">
<metadata>
Created by potrace 1.14, written by Peter Selinger 2001-2017
</metadata>
<g transform="translate(0.000000,700.000000) scale(0.100000,-0.100000)"
fill="#000000" stroke="none">
<path d="M3318 6955 c-2 -1 -47 -6 -100 -9 -53 -4 -105 -8 -115 -10 -10 -2
-43 -7 -73 -10 -68 -8 -88 -11 -220 -37 -212 -41 -437 -109 -655 -200 -69 -28
-282 -133 -345 -169 -41 -23 -84 -48 -95 -54 -71 -39 -369 -247 -395 -276 -3
-3 -50 -44 -105 -92 -119 -102 -262 -249 -365 -373 -41 -49 -78 -92 -81 -95
-13 -11 -171 -241 -220 -320 -62 -101 -176 -318 -214 -410 -15 -36 -35 -83
-45 -105 -47 -104 -153 -458 -175 -584 -3 -19 -7 -37 -9 -40 -2 -3 -7 -31 -11
-61 -4 -30 -8 -57 -10 -60 -2 -4 -9 -56 -21 -155 -25 -219 -25 -659 0 -792 2
-10 7 -43 10 -74 4 -31 8 -65 10 -75 2 -11 7 -39 11 -64 11 -75 46 -223 82
-355 26 -93 92 -279 124 -352 11 -23 19 -45 19 -48 0 -3 25 -57 54 -120 395
-830 1116 -1477 1985 -1779 124 -43 318 -99 384 -110 15 -3 35 -7 45 -10 31
-9 219 -40 307 -51 28 -3 70 -8 95 -11 96 -12 507 -11 620 1 139 16 216 25
244 31 12 2 46 8 76 14 96 16 112 20 245 55 736 193 1379 616 1856 1222 291
370 508 816 625 1283 18 73 64 311 69 361 4 35 9 72 10 81 18 91 26 516 14
663 -11 126 -24 228 -41 320 -5 33 -12 74 -15 90 -10 65 -73 306 -108 410 -87
265 -218 541 -362 768 -153 238 -284 401 -487 602 -386 384 -836 660 -1350
830 -208 69 -514 135 -696 151 -41 3 -84 8 -95 11 -21 5 -472 12 -477 8z m432
-129 c36 -3 90 -9 120 -12 30 -3 80 -9 110 -14 30 -5 73 -12 95 -16 173 -25
536 -130 688 -198 18 -8 70 -31 117 -52 166 -72 406 -209 538 -305 132 -98
172 -129 247 -192 621 -529 1029 -1275 1141 -2087 19 -134 28 -289 28 -445 0
-125 -10 -317 -18 -380 -3 -16 -8 -52 -12 -80 -4 -27 -8 -60 -10 -71 -6 -51
-15 -102 -24 -134 -5 -19 -12 -49 -14 -66 -10 -57 -57 -228 -87 -319 -69 -204
-142 -370 -246 -562 l-66 -122 -31 25 c-217 178 -431 309 -543 333 -29 6 -74
24 -100 40 -55 34 -89 47 -228 91 -109 35 -122 43 -125 80 -4 47 0 57 50 123
50 66 131 220 168 319 28 75 35 139 37 333 1 94 4 179 7 190 4 11 18 57 33
103 70 222 85 451 35 567 -16 39 -23 60 -27 85 -2 14 -17 51 -33 83 -17 31
-30 65 -30 75 0 17 25 62 64 116 17 25 18 33 7 114 -7 48 -14 111 -16 141 -2
29 -7 66 -10 82 -4 16 0 39 8 56 22 42 15 105 -16 150 -30 44 -32 53 -15 99
11 30 9 39 -20 95 -18 34 -32 67 -32 74 0 42 -132 346 -159 365 -4 3 -24 28
-46 55 -91 117 -314 307 -437 374 -174 94 -463 233 -513 246 -190 52 -343 82
-510 100 -16 2 -79 6 -140 9 -60 4 -147 9 -192 12 -45 3 -109 0 -141 -6 -33
-6 -93 -12 -134 -15 -40 -2 -95 -9 -123 -14 -27 -6 -61 -14 -75 -16 -14 -3
-32 -8 -40 -11 -8 -3 -25 -8 -38 -10 -62 -12 -196 -61 -275 -100 -170 -85
-285 -164 -392 -269 -124 -122 -154 -165 -305 -440 -18 -33 -77 -127 -130
-210 -169 -262 -244 -395 -333 -592 -48 -105 -87 -196 -87 -202 0 -6 -4 -19
-10 -29 -35 -63 -103 -262 -135 -394 -28 -120 -32 -311 -10 -463 7 -50 16
-115 20 -145 17 -155 59 -327 103 -420 42 -90 120 -192 176 -230 33 -23 48
-63 47 -125 0 -11 3 -34 8 -50 15 -55 1 -69 -106 -105 -54 -18 -145 -53 -203
-77 -58 -24 -145 -60 -195 -80 -49 -19 -130 -54 -180 -78 -49 -23 -112 -53
-140 -65 -27 -12 -108 -51 -179 -86 -70 -35 -134 -64 -140 -64 -21 0 -136 266
-198 455 -23 72 -71 245 -82 300 -16 75 -26 126 -30 155 -3 19 -7 44 -10 55
-3 18 -11 70 -21 150 -26 201 -24 568 4 785 16 122 27 192 35 218 3 9 7 34 10
54 7 49 58 240 91 348 94 299 268 640 463 910 42 58 78 107 82 110 3 3 23 28
44 55 175 222 442 470 696 647 142 99 423 252 576 315 204 83 474 168 629 199
11 2 31 6 45 9 14 3 42 8 64 10 21 3 41 7 45 9 4 3 34 7 66 11 33 3 69 8 80
10 11 2 65 7 120 11 55 3 101 7 102 8 5 5 356 -2 413 -8z"/>
</g>
</svg>
