<?xml version="1.0" encoding="utf-8"?>
<!-- Generator: Adobe Illustrator 25.2.3, SVG Export Plug-In . SVG Version: 6.00 Build 0)  -->
<svg version="1.1" id="ATHF_Carl_2_xA0_Image_1_" xmlns="http://www.w3.org/2000/svg" xmlns:xlink="http://www.w3.org/1999/xlink"
	 x="0px" y="0px" viewBox="0 0 901 901" style="enable-background:new 0 0 901 901;" xml:space="preserve">
<style type="text/css">
	.st0{fill:#090807;}
	.st1{fill:#EAD5C6;}
	.st2{fill:#E7D2C3;}
	.st3{fill:#745E47;}
	.st4{fill:#F4F4F4;}
	.st5{fill:#E4CFC0;}
	.st6{fill:#F3F3F3;}
	.st7{fill:#140F0C;}
	.st8{fill:#B5BA5F;}
	.st9{fill:#B5B95F;}
	.st10{fill:#B4B860;}
	.st11{fill:#B4B95F;}
	.st12{fill:#B3B85F;}
	.st13{fill:#B2B75F;}
	.st14{fill:#B2B560;}
	.st15{fill:#AFB45F;}
	.st16{fill:#151308;}
	.st17{fill:#1B1612;}
	.st18{fill:#A59D98;}
	.st19{fill:#827F76;}
	.st20{fill:#050404;}
	.st21{fill:#0C0A09;}
	.st22{fill:#110D0B;}
	.st23{fill:#0E0C0A;}
	.st24{fill:#100D0C;}
	.st25{fill:#171210;}
	.st26{fill:#101006;}
</style>
<g>
	<g>
		<path class="st0" d="M450.34,895.85C203.98,894.73,5.43,697.3,5.39,450.56C5.36,203.64,204.17,5.25,450.68,5.39
			C697.8,5.52,895.88,204.6,895.62,450.92C895.35,697.89,696.37,894.96,450.34,895.85z M357.84,445.08l0.06,0.09
			c-0.28-0.39-0.56-0.78-0.84-1.17c-1.34-1.36-2.69-2.71-4.03-4.07c-0.15-1.54-1.09-1.96-2.47-1.76c-0.29,0.09-0.47-0.01-0.52-0.32
			c-0.04-0.85-0.31-1.54-1.23-1.77c-5.13-3.59-5.87-10.03-9.5-14.59c-0.94-1.18-1.32-4.02-3.78-1.51c-1.85,0.66-1.91,1.68-0.62,2.99
			c0.15,0.83,0.01,1.56-0.71,2.09c-1.14,0.6-1.13,1.58-0.9,2.65c-0.14,1.77-0.28,3.54-0.42,5.31c-0.84,1.21-2.54,2.24-0.83,3.99
			c-0.21,0.66-0.43,1.31-0.64,1.97c-1.22,0.42-1.71,1.01-0.46,2c-0.12,1.55-0.42,3.03-1.67,4.12c-0.78-0.01-1.57-0.03-2.35-0.04
			c-1.69-1.25-3.97-1.75-4.93-3.92c0.01-0.95-0.19-1.77-1.29-2.01c-1.63-1.2-2.21-3.01-2.78-4.82c0.25-2.11-0.18-3.97-1.98-5.31
			l-0.12-0.29c0-0.78-0.34-1.32-1.09-1.58c-2.02-2.73-3.28-5.75-3.52-9.16c1.15-1.78,1.54-3.32-1.18-3.94l-0.24-0.14l0.04-0.27
			c0.22-1.3,0.01-2.33-1.53-2.59c-0.16-0.79-0.32-1.57-0.48-2.36c0.11-1.37,0.71-2.88-1.11-3.66c-0.86-4.34-1.72-8.67-2.58-13.01
			c1.25-0.93,0.82-1.54-0.38-1.99c-1.84-5.33-3.68-10.66-5.52-15.99c1.32-1.6,0.94-2.59-1.06-3.02c-1.45-1.55-1.82-3.54-2.27-5.5
			c-0.37-0.45-0.74-0.91-1.11-1.36c-2.63-2.88-5.25-5.76-7.88-8.64c-0.22-0.83-0.78-1.21-1.62-1.2c-1.07-0.4-2.15-0.79-3.22-1.19
			c-0.52-0.94-1.36-1.07-2.31-0.95c-0.3,0.15-0.53,0.08-0.7-0.21c-0.2-0.49-0.49-0.69-0.95-0.28c-6.95-0.47-13.59,0.83-20.03,3.37
			c-0.9-0.01-1.66,0.22-2.03,1.15l-0.27,0.11c-1.17-0.1-1.61,0.59-1.75,1.6c-0.97,1.05-1.93,2.11-2.9,3.16
			c-3.62,0.26-3.09,3.39-3.88,5.61c-0.3,0.78-0.61,1.55-0.91,2.33c-1.06,0.45-1.24,1.32-1.14,2.33c-0.62,1.89-1.24,3.78-1.86,5.68
			c-1.86,1.04-1.49,2.46-0.66,3.95c-1.02,10.01-1.29,20.03-0.83,30.08c-0.1,0.11-0.31,0.28-0.28,0.33c0.12,0.24,0.3,0.44,0.46,0.66
			c0.11,1.76,0.21,3.53,0.32,5.29c-0.19,1.37-0.78,2.83,0.93,3.73c0.23,0.66,0.46,1.32,0.7,1.98c-0.69,0.57-0.34,0.83,0.3,1
			l0.04,0.31c0.26,0.56,0.51,1.12,0.77,1.69c0.73,0.97,1.38,1.97,1.29,3.27c0.2,0.57,0.39,1.14,0.59,1.72
			c0.47,1.42,0.93,2.84,1.4,4.26c-0.08,0.77,0.2,1.34,0.92,1.68c4.05,3.39,3.09,9.41,6.83,12.96c0.31,0.37,0.62,0.74,0.93,1.11
			c0.73,0.84,1.46,1.68,2.2,2.52c0.32,0.48,0.64,0.96,0.96,1.44c8.42,7.75,14.71,17.81,24.24,24.18
			c8.55,5.72,12.7,14.17,16.06,22.82c4.44,11.44,12.12,17.77,23.75,20.23c6.56,1.39,10.08,0.18,13.69-5.61
			c1.15-1.84,1.97-1.44,2.83-0.02c0.7,1.16,0.54,2.53,0.65,3.86c1.22,14.79,4.09,29.1,11.34,42.33c3.05,5.55,7.85,9.89,10.35,15.77
			c0.62,1.46,2.43,3.03,0.46,4.3c-1.7,1.09-3.48,0.14-4.67-1.6c-2.05-2.99-4.26-5.88-6.23-8.92c-7.18-11.05-13.51-22.56-15.05-35.89
			c-0.56-4.84-2.08-6.15-7-6.22c-14.07-0.19-25.38-6.5-31.13-19.4c-5.84-13.11-13.9-23.91-25.16-32.62
			c-4.29-3.32-8.1-7.26-13.19-11.87c0.94,4.14,1.68,6.81,2.14,9.54c2.6,15.16,2.48,30.37,1.37,45.69
			c-1.1,15.14-6.96,27.22-20.1,35.16c-2.66,1.61-2.54,3-2.11,5.53c1.86,10.87,6.36,21.44,3.85,32.84c-0.36,1.66,0.58,3.26,1.42,4.69
			c4.94,8.47,8.26,17.28,16.44,24.48c9.53,8.39,18.14,18.96,23.63,31.18c0.97,2.15,1.96,3.81-0.14,5.72c-2.36,2.15-1.89,4.42,0,6.57
			c6.6,7.49,12.47,15.54,18.38,23.56c1.13,1.54,2.65,3.29,4.49,2.07c4.22-2.82,6.49,0.22,8.93,2.55
			c9.16,8.75,16.95,18.67,24.46,28.83c1.75,2.37,1.4,4.07-0.54,6.06c-2.32,2.37-2.36,4.83,0.06,7.43
			c6.56,7.06,12.99,14.23,19.45,21.38c1.14,1.27,2.24,2.65,4.2,1.81c2.58-1.12,4.41,0.15,6.32,1.64c6.17,4.79,12.79,9.08,18.5,14.35
			c5.76,5.31,12.85,9.68,15.54,17.75c0.61,1.84,2.3,1.64,3.67,2.05c11.63,3.53,23.69,4.94,35.57,7.28
			c17.16,3.39,34.58,4.5,51.9,5.41c12.67,0.66,23.71,3.96,33.86,11.09c1.23,0.86,3.46,2.05,2.39,3.82
			c-1.35,2.24-3.31,0.47-4.64-0.54c-6.03-4.56-13.22-6.85-20.31-7.43c-15.37-1.24-30.73-2.79-46.12-3.83
			c-4.61-0.31-9.16-0.12-13.78-1.2c-10.66-2.5-21.44-4.47-32.19-6.57c-1.01-0.2-2.41-1.02-3.15,0.36c-0.72,1.35,0.58,2.1,1.39,2.86
			c4.02,3.74,8.05,7.45,12.12,11.14c1.66,1.51,3.48,2.59,5.88,1.62c2.8-1.13,5.19-0.16,7.44,1.51
			c12.16,9.02,23.47,19.06,34.87,28.98c1.88,1.64,2.44,3.4,1.18,5.72c-1.73,3.17-0.33,5.32,2.48,7.01
			c3.84,2.31,7.37,5.39,11.49,6.92c4.29,1.59,7.22,6.25,12.46,5.47c7.57-1.14,15.13-2.3,22.69-3.47c1.79-0.28,3.38-0.35,3.5-3.07
			c0.13-2.99,2.31-2.65,3.66-0.86c1.65,2.17,3.47,2.05,5.67,1.52c4.65-1.1,9.32-2.12,15.37-3.49c-3.43-0.82-4.27-2.52-4.63-4.57
			c-0.52-2.98-1.5-5.77-3.18-8.33c-0.68-1.03-1.73-2.43,0.01-3.41c1.3-0.73,2.55-0.12,3.61,0.88c2.38,2.25,3.63,5.07,4.57,8.15
			c1.57,5.14,3.57,6.26,8.91,4.78c6.72-1.86,13.37-4,20.08-5.91c2.89-0.82,5.32-1.64,4.08-5.56c-0.34-1.07-0.64-2.95,1.08-3.4
			c1.47-0.39,2.65,0.8,3,2.11c1.05,3.98,3.38,2.93,6.07,1.96c26.03-9.41,50.77-21.48,74.59-35.54c4.35-2.56,7.03-5.38,7.49-10.68
			c0.47-5.33,0.56-5.82-4.93-5.05c-11.82,1.65-23.75,2.54-35.39,5.35c-3.39,0.82-6.78,1.58-9.61,3.85c-1.12,0.9-2.62,2.3-3.78,0.58
			c-0.93-1.39,0.17-2.98,1.62-3.68c4.93-2.37,9.57-5.62,15.01-6.62c12.07-2.22,24.13-4.66,36.41-5.52c3.74-0.26,5.52-2.58,5.87-5.71
			c0.98-8.73,1.6-17.5,2.3-26.26c0.17-2.12-0.67-3.94-2.31-5.29c-2.92-2.41-4.12-5.58-4.15-9.24c-0.1-11.45-0.16-22.89-0.2-34.34
			c-0.01-2.51,1.15-4.45,3.33-5.75c2.03-1.22,3.23-2.77,2.5-5.35c-2.33-8.22-1.6-16.81-2.79-25.18c-0.54-3.79-1.9-5.35-5.36-5.57
			c-3.5-0.22-4.76-1.7-5.41-5.5c-2.05-11.87-3.14-23.68-1.37-35.65c0.65-1.29,1.34-2.58,0.46-4.11c-1.47,0.87-1.81,2.26-1.99,3.74
			c-2.36,5.7-7.38,9.33-11.04,14.02c-10.29,13.17-22.38,23.5-39.97,25.69c-15.88,1.98-31.44,2.86-46.47-4.26
			c-2.48-1.18-5.33-1.74-8.59-1.27c-6.33,0.93-12.92,1.41-19.26,0.72c-8.38-0.92-16.75-1.9-25.15-2.7
			c-3.87-0.37-7.83-0.65-11.68-1.9c-8.67-2.8-17.55-4.96-26.22-7.75c-7.88-2.54-16.17-3.97-23.52-7.99
			c-11.15-6.09-22.39-12.01-32.58-19.72c-2.65-2.01-5.23-4.09-7.67-6.32c-1.29-1.17-1.77-3.11-0.53-4.54
			c1.44-1.66,2.74-0.02,3.78,0.87c6.04,5.23,12.61,9.69,19.91,12.9c9.08,4,18.33,7.62,27.47,11.5c12.07,5.13,24.95,7.55,37.42,11.31
			c5.62,1.69,11.32,2.17,17.04,3.01c9.7,1.41,19.4,1.44,30.03,1.5c-2.32-3.18-4.63-5.23-6.97-7.28c-2-1.75-3.84-3.67-5.73-5.54
			c-0.94-0.93-1.2-2.04-0.35-3.14c0.72-0.93,1.62-1.88,2.94-1.13c3.31,1.89,7.56,2.1,10.26,4.87c5.65,5.82,12.54,9.74,19.64,13.24
			c3.47,1.71,7.4,5.08,10.92,3.66c3.33-1.34,5.32-0.45,7.76,0.76c1.81,0.9,3.68,2.02,5.64,1.81c8.98-0.95,18.07-0.21,26.89-3.63
			c9.79-3.8,18.96-8.52,24.81-17.18c9.07-13.41,14.39-29.01,23.53-42.48c6.49-9.58,12.27-19.64,18.78-29.21
			c7.33-10.79,14.9-21.37,17.95-34.37c1.02-4.36,2.46-8.65,3.14-13.06c1.97-12.68,1.87-25.47,1.82-38.27
			c-0.03-8.66,1.14-17.37,3.95-25.41c3.68-10.56,6.29-21.33,8.82-32.15c1.44-6.15,2.29-12.6,1.39-18.79
			c-2.26-15.52-6.89-30.54-13.41-44.73c-2.78-6.06-2.3-10.25,0.82-15.66c2.92-5.06,6.79-9.88,6.95-16.31
			c0.15-6.2-1.37-12.22-1.49-18.35c-0.19-9.85-5.28-14.75-14.76-15.8c-1.47-0.16-2.88-0.81-4.31-1.22
			c-4.69-1.35-8.74-0.84-12.07,3.31c-1.85,2.31-4.59,3.89-6.46,6.19c-1.69,2.07-6.07,3.27-4.79,6.04c1.12,2.44,5.29,1.91,8.24,2.09
			c1.98,0.12,5.36-1.35,5.32,1.55c-0.05,3.27-3.71,2.32-6.05,2.31c-1.64-0.01-3.28-0.57-4.93-0.62c-7.53-0.24-14.75,0.45-21.09,5.34
			c-5.05,3.9-10.92,6.19-17.36,6.66c-1.45,0.11-2.59,0.39-3.24,1.79c-0.66,1.43,0.45,2.12,1.21,2.95c2.02,2.21,3.37,4.63,1.97,7.67
			c-2.07,4.52-4.02,9.1-7.09,13.09c-2.92,3.79-6.42,6.37-11.4,5.22c-3.4-0.79-6.58-0.17-9.83,0.48c-1.79,0.36-3.57,0.91-5.38,1.01
			c-1.56,0.08-3.79,0.29-3.99-1.88c-0.16-1.77,1.73-2.19,3.25-2.44c3.44-0.58,7.02-2.02,10.3-1.51c8.01,1.24,12.03-3.73,15.42-9.22
			c1.77-2.86,5.68-6.22,2.08-10.2c-2.99-3.3-4.52-7.35-6.6-11.11c-2.95-5.32-3.27-11.46-4.54-17.28c-0.28-1.28,0.23-3.45,1.89-3.7
			c2.14-0.33,1.73,1.93,2.18,3.21c0.17,0.47,0.27,0.97,0.31,1.46c0.23,2.48,0.23,6.27,2.08,6.71c2.41,0.57,3.93-2.84,5.37-4.94
			c1.98-2.89,3.94-2.74,5.94-0.21c3.69,4.65,5.77,5.15,10.92,2.14c4.87-2.84,9.97-5.42,14.41-8.83
			c7.73-5.93,16.69-10.52,22.48-18.69c2.58-3.63,5.68-4.73,9.78-4.31c6.52,0.66,11.42,4.3,15.74,8.79c2.16,2.25,3.33,2.12,4.75-0.66
			c3.6-7.06,1.15-15.74-5.98-19.85c-6.73-3.87-14.16-4.16-21.59-3.22c-3.24,0.41-6.35,1.85-9.53,2.82c-0.99,0.3-2.04,0.55-2.49-0.74
			c-0.33-0.94,0.31-1.57,1.06-2.01c3.12-1.84,5.9-4.36,9.75-4.72c6.76-0.63,13.49-1.1,20.12,1.04c2.7,0.87,4.11-0.78,4.82-3.05
			c1.43-4.59-0.46-10.1-4.68-12.77c-6.66-4.2-13.76-6.67-21.74-3.93c-1.51,0.52-3.51,1.82-4.15-0.59c-0.74-2.78,1.98-2.49,3.59-2.87
			c5.9-1.37,11.85-0.27,18.04,0.17c-1.01-7.83-3.27-14.67-6.5-21.56c-5.26-11.22-11.74-21.59-19.65-30.91
			c-8.55-10.08-17.94-19.46-28.16-27.95c-9.32-7.74-19.06-14.79-29.63-20.78c-7.65-4.34-15.59-8.02-23.43-11.93
			c-10.57-5.27-21.57-9.66-32.68-13.36c-9.33-3.1-18.87-5.93-28.5-8.35c-8.94-2.24-18.03-3.96-26.95-6.4
			c-10.57-2.89-21.76-1.9-32.68-2.41c-16.6-0.77-33.19-0.47-49.81,0.4c-15.34,0.8-30.41,3.16-45.2,6.73
			c-14.51,3.5-27.89,10.42-41.39,16.77c-8.17,3.84-15.08,9.63-22.69,14.32c-13.94,8.6-24.76,20.54-35.08,32.86
			c-8.57,10.23-14.69,22.07-19.33,34.61c-0.26,0.4-0.52,0.81-0.78,1.21c-0.34,1.26-0.67,2.51-1.01,3.77c-1,1.53-2.65,2.93-1.07,5.01
			c-0.09,0.68-0.18,1.36-0.28,2.04c-0.63,4.63-3.49,9.25-0.07,13.9c0.11,2.93,2.05,3.32,4.38,3.17c1.89,6.65-3.37,4.34-6.26,4.99
			c-0.28,0.01-0.54-0.05-0.79-0.19c-0.35-0.3-0.71-0.59-1.06-0.89c-1.87-2.58-1.8-5.55-1.86-8.53c-0.03-1.52,0.83-3.7-1.41-4.25
			c-1.84-0.45-2.32,1.61-3.1,2.76c-12.75,18.79-26.01,37.28-36.05,57.77c-4.15,8.47-8.55,16.85-12.21,25.53
			c-6.11,14.5-11.77,29.21-17.8,43.73c-7.93,19.1-12.69,38.74-13.52,59.25c-0.62,15.25-1.06,30.6,3.06,45.59
			c2.34,8.52,1.58,17.48,3.94,26.05c3.83,13.91,7.36,27.89,13.92,40.83c2.31,4.56,5.21,8.74,9.67,11.73
			c-7.07-13.92-14.53-27.55-15.43-43.5c0.6,0,1.2,0,1.8,0.01c2.97,4.58,2.87,10.18,4.96,15.01c4.53,10.48,8.78,21.21,15.48,30.51
			c3.07,4.26,5.42,9.73,11.44,11.29c1.39,0.36,2.79,1.85,3.96,0.2c1-1.42-0.11-2.8-1.03-4.04c-3.08-4.12-6.86-7.92-9.05-12.47
			c-6.68-13.86-13.96-27.43-18.45-42.32c-3.85-12.78-5.26-25.99-8.14-38.92c-0.28-1.23-1.03-3.49,0.91-3.81
			c1.82-0.3,1.98,1.98,2.3,3.31c2.27,9.51,4.35,19.08,6.42,28.63c2.66,12.31,7.98,23.49,12.89,34.88c0.49,1.13,1.15,2.95,2.73,2.29
			c1.53-0.63,0.57-2.31,0.36-3.55c-0.27-1.54-1.59-3.6,0.7-4.23c1.91-0.53,2.83,1.46,3.21,3.12c1.55,6.82,4.44,13.2,6.36,19.89
			c1.63,5.69,3.97,10.93,7.65,15.55c0.61,0.76,1.25,1.7,2.44,1.31c1.04-0.34,0.83-1.32,0.71-2.1c-1.61-10.84-3.74-21.58-6.62-32.16
			c-2.95-10.84-6.2-21.6-9.31-32.4c0.73-0.02,1.46-0.03,2.2-0.05c0.76,1.28,1.74,2.48,2.26,3.85c6.96,18.14,12.43,36.77,17.62,55.47
			c0.39,1.39-0.03,3.22,1.89,3.67c1.97,0.46,3.04-1.05,4.01-2.39c3.07-4.22,3.91-9.16,4.05-14.17c0.32-10.85-1.28-21.56-3.24-32.19
			c-0.47-2.57-0.68-4.75,1.77-7.54c3.14,9.61,4.83,18.8,6.69,27.98c1.55-4.27,1.9-8.51,1.69-12.84
			c-0.71-14.93-2.68-29.72-4.97-44.48c0.12-1.24,0.4-2.51-0.92-3.36c-4.09-9.53-9.45-18.39-12.57-28.48
			c-5.78-18.67-6.34-37.21-0.96-55.8c2.62-9.04,7.74-17.42,15.66-22.47c10.27-6.54,21.44-5.55,32,0.6c0.31,0.94,1.06,1.16,1.93,1.2
			c2.91,2.45,5.47,5.18,7.14,8.66c0.31,0.44,0.63,0.88,0.94,1.32c1.46,1.26,3.05,2.44,3.07,4.66c0.25,0.45,0.51,0.89,0.76,1.34
			c0.09,0.53,0.17,1.07,0.26,1.6c0.27,0.47,0.53,0.94,0.8,1.41c0.66,1.68,1.32,3.35,1.98,5.03c-1.43,1.48-0.28,1.75,0.94,1.99
			c0.11,0.85,0.21,1.7,0.32,2.55c-0.16,0.99-0.12,1.9,0.9,2.46c0.12,0.19,0.14,0.38,0.05,0.59c0.28,0.46,0.56,0.93,0.85,1.39
			c0.13,0.21,0.18,0.44,0.13,0.69c0.25,0.43,0.5,0.86,0.75,1.29c0.4,1.63,0.79,3.26,1.19,4.89c-0.05,0.88,0.09,1.68,0.97,2.14
			c0.96,7.61,3.07,14.91,5.74,22.08c-1.21,1.45-0.93,2.44,0.92,2.93c0.1,0.35,0.19,0.7,0.29,1.05c0.03,0.82,0.25,1.53,1.04,1.94
			c0.14,0.18,0.18,0.38,0.12,0.6c0.32,0.47,0.65,0.94,0.97,1.42c0.16,0.14,0.19,0.31,0.1,0.5c-0.26,1.35,0.1,2.3,1.62,2.49
			c1.04,2.26,2.01,4.55,3.16,6.75c0.65,1.25,1.25,3.08,3.12,2.61c1.53-0.38,1.45-2.17,1.51-3.39c0.26-4.87,1.9-9.39,3.31-13.97
			c0.3-0.5,0.59-1,0.89-1.51c-0.18-3.33,0.39-6.54,1.27-9.76c3.08-11.26,5.48-22.71,9.83-33.6c0.02-0.39,0.03-0.77,0.05-1.16
			c4.02-10.79,7.78-21.68,13.02-31.97c2.41,0.23,1.87,2.25,2.27,3.71c0.02,1.23-0.17,2.4-1,3.38c-1.1,0.37-1.22,1.24-1.14,2.22
			c-0.37,2.51-2.02,4.44-3,6.67c-1.34,0.79-1.11,2.07-1.01,3.3c-0.2,2.18-1.38,3.93-2.53,5.7c-1.6,0.45-1.63,1.54-1.12,2.83
			c-0.17,0.73-0.34,1.46-0.51,2.19c-0.13,0.08-0.38,0.16-0.38,0.23c0.01,0.25,0.11,0.5,0.17,0.75c-0.12,0.67-0.25,1.33-0.37,2
			c-1.44,0.53-1.39,1.59-1.01,2.78c0.12,1.66-1.05,2.83-1.62,4.22c-2.16,0.44-1.67,2.07-1.56,3.52c-0.2,1.16-0.41,2.31-0.61,3.47
			c-2.37,1.87-3.18,4.15-1.81,6.99c-0.38,1.01-0.76,2.01-1.14,3.02c-1.22,0.31-2.08,0.76-0.71,1.99c-0.78,3.79-0.79,7.56,0.39,11.29
			c-0.24,1.1-0.28,2.11,1.05,2.57l-0.07-0.1c-0.35,3.15,0.72,5.84,2.64,8.26c2.26,2.28,3.8,5.01,4.93,7.99
			c0.64,1.7,1.05,3.68,3.64,3.12c3.03-3.26,3.02,1.73,4.83,1.78c1.52,1.59,1.97,3.71,2.84,5.62c0.3,0.49,0.6,0.97,0.89,1.46
			c3.28,2.33,3.42,6.9,6.62,9.29c0.88,1.45,1.76,2.9,2.64,4.35c0.44,1,0.4,2.42,1.92,2.53c0.3,0.02,0.88-0.48,0.92-0.79
			c0.16-1.37-1.01-1.91-1.88-2.63c-0.41-1.34-0.34-2.87-1.58-3.88c-0.49-2.28-0.98-4.56-1.48-6.85c0.73-0.06,1.46-0.11,2.19-0.17
			c0.96,0.79,1.39,1.87,1.63,3.05c-0.02,0.94,0.18,1.74,1.24,2.01c2.64,4.48,5.28,8.96,7.92,13.43c0,0.76,0.34,1.3,1.07,1.56
			c0.89,0.82,1.78,1.64,2.68,2.45c0.76,0.75,0.84,2.51,2.25,2.18c1.14-0.27,0.41-1.28,0.01-1.95c-0.33-0.88-0.65-1.77-0.98-2.65
			c0.83-0.76,0.84-1.79,0.89-2.8c2.04,0.85,2.85,2.82,4.02,4.45c0.36,0.44,0.72,0.89,1.08,1.33c1.25,1.37,2.51,2.74,3.76,4.11
			c0.15,1.88-0.57,3.05-2.58,3.17c-1.33-0.46-2.33-2.15-4.07-1.08c-0.46,0.39-0.92,0.78-1.38,1.18c-0.31,0.07-0.63,0.14-0.94,0.21
			c-0.19-0.75-0.65-1.23-1.42-1.37c-1.23-1.31-2.45-2.62-3.68-3.93c-0.35-0.41-0.71-0.82-1.06-1.23c-1.27-1.71-2.54-3.41-3.81-5.12
			c-0.09-0.65-0.19-1.39-0.99-1.44c-0.81-0.05-0.99,0.67-1.12,1.31c-0.75,1.27-2.02,1.54-2.85,0.54
			c-4.52-5.45-10.98-9.36-13.33-16.55C358.84,445.96,358.56,445.39,357.84,445.08z M224.97,559.16c-1.89-0.03-3.55-0.72-5.19-1.6
			c-2.88-1.55-3.48-0.26-3.17,2.49c0.92,8.08,1.68,16.17,2.62,24.25c0.35,3.06,1.65,5.39,5.28,5.43c4.66,0.06,9.31,0.21,13.97,0.32
			c2.44,0.06,3.45-1.46,3.07-3.52c-1.58-8.47-3.36-16.91-5.06-25.36c-0.47-2.31-1.87-1.76-3.32-1.13c-0.36,0.22-0.73,0.44-1.09,0.66
			c-0.68,0.07-1.36,0.13-2.04,0.2C228.39,560.2,227.14,558.34,224.97,559.16z M406.95,877.94c6.81,0.42,13.63,0.72,20.43,1.31
			c3.04,0.27,4.76-0.09,4.46-3.78c-0.19-2.4-0.11-5.99,2.94-5.93c3.34,0.07,2.03,3.72,1.88,5.71c-0.31,3.9,1.21,4.79,4.84,4.66
			c7.15-0.27,14.33-0.02,21.49-0.16c2.3-0.05,4.8,0.48,7.08-1c-2.69-2.81-5.48-4.05-9.16-2.94c-1.81,0.55-3.58-0.17-5.17-1.25
			c-12.66-8.62-24.35-18.41-35.38-29c-0.84-0.81-1.97-1.66-1.59-2.93c1.18-3.92-1.64-5.79-3.9-7.9c-3.04-2.83-6.06-5.72-9.36-8.22
			c-6.25-4.75-10.32-12.79-19.56-13.1c-0.57-0.02-1.16-0.62-1.68-1.03c-3.5-2.81-6.91-5.74-10.5-8.43
			c-3.18-2.39-5.06-6.97-9.04-7.55c-5.36-0.78-10.19-3.11-15.35-4.08c-21.36-4.01-41.24-12.59-61.7-19.37
			c-2.98-0.99-5.8-2.5-8.66-3.84c-1.08-0.51-2.17-1.32-1.65-2.68c0.57-1.52,1.98-1.06,2.98-0.59c5.43,2.56,11.31,3.8,16.9,5.84
			c15.79,5.77,31.99,10.06,48.19,14.43c2.55,0.69,5.19,1.2,7.82,1.44c1.89,0.17,3.79-0.48,1.56-2.74c-2.48-2.52-3.18-5.33-2.27-8.64
			c0.52-1.91-0.43-3.24-1.71-4.37c-7.13-6.27-12.9-13.78-19.23-20.78c-1.88-2.07-3.57-4.57-6.58-5.09c-3.47-0.6-6.06-2.61-8.56-4.8
			c-7.78-6.83-14.22-14.85-20.55-23.01c-2.45-3.16-3.86-6.22-2.56-10.05c0.82-2.41-0.03-4.31-1.45-5.95
			c-5.79-6.67-10.57-14.08-15.94-21.06c-1.9-2.47-2.98-6.15-7.03-6.47c-3.47-0.27-5.7-2.47-7.6-5.12
			c-5.72-7.97-11.41-15.96-16.16-24.58c-1.97-3.57-4.89-6.9-2.12-11.44c0.56-0.92-0.08-2.21-0.58-3.32
			c-4.82-10.73-10.75-20.96-14.29-32.26c-0.67-2.15-2.58-2.82-4.6-3.36c-3-0.8-5.51-2.29-6.47-5.56c-1.06-3.58-3.04-3.56-6.46-2.59
			c-13.32,3.78-25.51,10.38-38.49,15c-4.65,1.65-9.51,2.86-14.01,5.07c-11.47,5.64-22.63,11.89-34.45,16.84
			c-7.95,3.33-15.68,7.21-23.42,11.02c-2.83,1.39-3.44,3.11,0.22,4.52c4.02,1.56,8.05,3.13,11.96,4.94
			c18.78,8.73,34.78,21.19,48.88,36.31c13.98,14.99,26.04,31.42,36.87,48.73c9.5,15.19,18,30.96,26.59,46.69
			c8.84,16.19,18.26,32.07,27.89,47.81c3.03,4.94,4.87,11.12,10.86,13.83c7.26,3.29,14.53,6.58,21.82,9.8
			c1.41,0.62,2.86,1.94,4.64,0.47c-0.12-0.44-0.14-0.98-0.4-1.35c-1.55-2.18-5.23-5.03-2.89-6.88c2.69-2.12,5.19,1.92,6.77,4.17
			c6.02,8.61,14.22,13.5,24.36,15.68c4.74,1.02,9.15,3.41,14.43,3.83c-0.52-1.72-1.11-2.95-1.22-4.23
			c-0.16-1.86-1.22-4.62,1.06-5.25c2.19-0.6,3.62,2.15,3.69,3.91c0.28,7.42,5.24,9.06,11.18,10.04c3.76,0.62,7.44,1.73,11.17,2.59
			c15.58,3.62,31.42,5.62,47.22,7.91C405.9,877.86,406.42,877.9,406.95,877.94z M817.6,673c0.27-0.35,0.71-0.85,1.05-1.41
			c34.98-58.35,55.06-121.49,60.07-189.3c4.28-57.97-2.85-114.59-21.51-169.71c-54.46-160.86-198.37-274-368.5-289.68
			c-49.23-4.54-97.84-0.75-145.6,11.86C242.6,61.3,161.79,116.97,101.03,201.21C54.3,265.99,28.52,338.71,22.29,418.3
			c-2.53,32.33-1.15,64.57,3.68,96.66c6.56,43.56,19.56,85.07,38.88,124.65c1.61,3.3,3.19,3.55,6.1,1.96
			c5.23-2.86,10.52-5.61,15.89-8.21c10.22-4.94,20.47-9.81,30.77-14.56c9.46-4.36,18.78-9.16,28.56-12.62
			c10.26-3.63,19.95-8.48,29.97-12.58c10.86-4.44,21.77-8.62,33.03-11.86c5.69-1.64,7.12-4.1,5.87-10.05
			c-0.42-2-2.01-3.88-1.23-6.08c1.67-4.71-2.77-8.89-1.17-13.64c0.1-0.31-1.28-1.24-2.07-1.71c-8.11-4.81-13.8-11.83-18.96-19.59
			c-9.04-13.58-13.4-28.9-16.65-44.48c-2.56-12.31-3.21-25.01-5.36-37.42c-2.26-13.04-2.38-26.18-2.45-39.28
			c-0.07-13.17,4.15-25.8,7.43-38.39c2.91-11.15,7.83-21.78,11.94-32.61c2.37-6.26,4.76-12.51,7.4-18.66
			c2.07-4.82,4.59-9.44,6.81-14.2c3.95-8.48,7.51-17.19,11.64-25.54c5.13-10.38,12.1-19.87,17.86-29.93
			c9.54-16.68,21.6-31.71,30.55-48.73c5.29-10.06,10.62-20.05,16.76-29.7c7.27-11.43,16.14-21.21,25.89-30.29
			c7.39-6.88,15.68-12.88,24.44-17.81c9.56-5.38,18.75-11.44,28.93-15.79c11.43-4.88,23.24-8.33,35.3-11.03
			c11.25-2.52,22.41-5.9,34.18-4.92c0.8,0.07,1.62-0.17,2.43-0.27c7.44-0.95,15-3.2,22.3-2.56c13.73,1.19,27.51,1.42,41.23,2.33
			c17.9,1.19,35.27,4.52,52.59,8.46c13.62,3.1,27.33,6.39,39.72,13.17c8.29,4.54,16.73,8.71,25.24,12.8
			c11.28,5.42,22.3,11.31,32.61,18.45c8.88,6.15,17.23,12.96,25.48,19.93c9.58,8.09,16.62,18.35,24.63,27.8
			c4.89,5.76,7.01,12.98,10.64,19.39c4.95,8.75,7.95,18.32,10.16,27.98c0.92,4.02,1.79,7,4.61,10.28c2.99,3.46,4.59,8.39,1.14,13.5
			c-1.65,2.45-0.82,5.79,1.36,8.33c5.79,6.76,7.33,14.27,3.06,22.27c-1.39,2.6-1.55,5.16-0.72,7.41c1.68,4.54,0.95,9.27,1.52,13.84
			c0.86,6.89,2.18,13.77,2.6,20.78c0.23,3.91,0.01,6.96-2.85,9.15c-2.51,1.92-3.47,4.74-5.05,7.09c-3.5,5.21-2.48,9.94,1.56,15.04
			c1.37,1.72,2.64,3.61,3.17,6.03c0.91,4.11,1.77,8.5,3.28,12.18c4.27,10.4,5.56,21.01,5.63,32.03c0.11,16.34-4.32,31.86-9.33,47.07
			c-3.95,12-6.24,23.83-4.96,36.45c1.06,10.44,0.81,21.04-1.1,31.3c-2.18,11.67-7.83,22.29-12.94,32.96
			c-4.07,8.51-9.13,16.43-15.53,23.48c-4.64,5.11-4.3,15.02,0.6,17.27c4.67,2.15,9.78,3.34,14.7,4.92
			c7.75,2.5,15.82,4.33,22.98,8.42c6.02,3.44,11.61,7.64,18.88,8.35c2.72,0.27,5.63,0.86,8,2.13c9.62,5.15,19.39,10.13,28.48,16.12
			c8.26,5.45,15.99,11.76,23.99,17.63C810.25,666.23,814.01,669.56,817.6,673z M247.37,828.81c-0.11-1.17-0.04-1.52-0.18-1.75
			c-13.71-23.11-24.07-48.01-38.34-70.86c-12.21-19.55-22.54-40.29-38.16-57.59c-10.45-11.58-20.61-23.45-33.5-32.48
			c-11.53-8.08-22.54-16.83-36.34-21.32c-9.42-3.07-17.77-4.82-26.81,1.35c-3.82,2.6-4.05,3.69-2.06,7.36
			c30.61,56.46,71.64,103.87,123.16,142.2C211.54,807.91,228.72,818.9,247.37,828.81z M702.53,781.75
			c-0.29,5.32,1.31,6.36,6.18,4.52c12.05-4.54,23.55-9.9,32.5-19.69c4.82-5.27,10.08-10.19,15.46-14.89
			c3.11-2.72,3.71-5.61,2.59-9.25c-3.69-12.04-7.2-24.14-11.11-36.11c-4.8-14.67-9.8-29.28-14.95-43.83
			c-5.11-14.43-11.32-28.22-20.94-40.47c-4.74-6.04-10.83-7.09-17.3-8.37c-1.34-0.26-3.11-0.03-2.72,1.84
			c0.77,3.66,0.72,8.3,4.31,10.17c4.9,2.55,6.42,6.67,6.93,11.31c1,9.23,1.97,18.48,1.7,27.82c-0.12,3.99-0.97,7.16-4.52,9.29
			c-1.44,0.86-2.78,1.79-2.13,3.94c2.43,8.01,2.02,16.42,3.35,24.6c0.53,3.26,0.99,6.14,4.95,7.11c2.45,0.6,3.79,2.85,4.04,5.26
			c1.35,13.21,1.71,26.47,1.86,39.73c0.03,2.91-1.44,5.74-4.14,6.21c-5.82,1.01-5.63,5.04-5.59,9.21
			C703.04,774.27,704.08,778.42,702.53,781.75z M764.52,742.52c0.77-0.44,1.25-0.6,1.55-0.92c16.68-17.97,31.63-37.27,44.97-57.83
			c0.63-0.97,1.82-2.4,1.03-3.1c-3.55-3.2-3.25-8.72-7.49-11.52c-15.06-9.93-28.95-21.54-45.83-28.83
			c-11.81-5.1-22.77-12.21-34.73-17.17c-1.54-0.64-3.37-2.67-4.9-0.83c-1.15,1.39,0.55,3.03,1.36,4.44
			c3.96,6.89,8.81,13.2,12.24,20.47c7.83,16.6,13.03,34.07,18.19,51.59C755.18,713.3,759.87,727.65,764.52,742.52z M436.44,826.92
			c-1.66-0.12-2.36,1.16-3.13,2.2c-2.78,3.72-5.41,7.55-8.24,11.23c-1.75,2.27-1.09,3.48,0.97,5.27c9.48,8.25,20.19,15,29.01,24.05
			c2.45,2.52,5.17,2.11,7.29-0.58c2.56-3.25,4.87-6.69,7.35-10.01c2.13-2.84,1.56-5.22-1.07-7.34
			c-9.43-7.61-18.84-15.24-28.29-22.82C439.18,828.01,438.01,827,436.44,826.92z M694.2,712.9c-0.83,0-1.66,0-2.5,0
			c-6.59,0.02-6.66,0.02-6.58,6.74c0.05,4.14,0.57,8.28,0.54,12.41c-0.05,6.92-0.31,13.85-0.59,20.77c-0.1,2.57,0.87,3.55,3.47,3.52
			c4.81-0.05,9.63-0.31,14.43,0.51c3.32,0.57,4.53-1.48,4.6-4.37c0.24-9.97,0.1-19.97-1.32-29.83
			C704.83,712.85,704.46,712.9,694.2,712.9z M687.98,669.32c0-0.01,0-0.02,0-0.04c2.66,0,5.32,0,7.98,0c2.71,0,4.14-1.58,3.96-4.06
			c-0.68-9.72,0.22-19.52-1.52-29.2c-0.61-3.39-2.16-4.94-5.64-4.8c-3.82,0.15-7.65,0.15-11.46,0c-4.25-0.17-5.69,1.78-6.07,5.93
			c-0.67,7.33,0.04,14.6,0.12,21.9c0.11,9.47,1.09,10.29,10.64,10.29C686.65,669.32,687.32,669.32,687.98,669.32z M323.72,738.91
			c3.66-0.14,12.49-7.58,13.29-11.08c0.35-1.53-0.44-2.54-1.24-3.59c-3.82-4.98-7.36-10.21-11.52-14.88
			c-11.16-12.51-9.12-14.03-23.17-3.15c-0.26,0.2-0.58,0.34-0.82,0.56c-3.09,2.7-3.11,6.06-0.76,8.85
			c5.85,6.95,12.06,13.6,18.17,20.33C319.26,737.7,321.24,738.87,323.72,738.91z M367.3,767.51c-3.84,1.36-5.88,4.85-8.36,7.95
			c-2.09,2.6-1.65,4.49,0.54,6.89c6.94,7.62,15.36,13.62,22.47,21.08c6.93,7.28,7.23,7.01,13.62-1.11c1.33-1.69,2.64-3.4,3.77-5.22
			c1.28-2.06,1.23-3.83-0.96-5.6c-9.01-7.3-17.87-14.79-26.83-22.16C370.42,768.39,369.14,767.53,367.3,767.51z M281.97,656.07
			c-0.15-0.32-0.29-0.82-0.59-1.2c-6.38-8.26-12.76-16.53-19.19-24.75c-1.35-1.73-3.31-1.81-4.96-0.78
			c-2.94,1.84-5.77,3.9-8.46,6.08c-2.07,1.67-2.21,3.66-0.81,6.17c4.72,8.42,10.57,16.07,16,24c1.66,2.42,3.95,3.72,6.75,1.45
			c3.22-2.61,6.39-5.27,9.54-7.96C281.11,658.34,282.12,657.6,281.97,656.07z M426.87,827.12c-0.26-0.44-0.41-0.96-0.76-1.25
			c-7.65-6.36-14.63-13.51-22.76-19.29c-1.92-1.37-3.19-0.62-4.57,1.11c-1.66,2.08-1.88,3.64,0.21,5.53
			c6.65,6.01,13.23,12.11,19.82,18.19c1.29,1.19,2.67,2.37,4.32,0.92C424.73,830.93,426.29,829.38,426.87,827.12z M301.88,696.56
			c-0.19-0.38-0.36-0.87-0.65-1.26c-6.28-8.54-12.5-17.12-18.92-25.55c-1.43-1.89-3.7-1.4-5.37-0.08c-1.97,1.56-0.76,3.36,0.3,4.82
			c5.95,8.14,12,16.2,17.96,24.33c1.3,1.78,2.82,1.46,4.38,0.69C300.75,698.93,302.05,698.33,301.88,696.56z M359,765.01
			c-0.22-0.43-0.41-1.1-0.83-1.57c-6.68-7.61-13.33-15.24-20.14-22.73c-1.43-1.58-3.45-1.01-4.95,0.32
			c-1.86,1.65-1.09,3.53,0.31,4.79c7.33,6.55,13.59,14.04,19.7,21.68c0.81,1.01,1.77,1.65,3,0.99
			C357.42,767.79,358.62,766.86,359,765.01z M252.91,623.45c-0.16-0.42-0.25-0.74-0.39-1.04c-3.85-8.26-7.49-16.63-12.17-24.48
			c-1.2-2.01-3.16-2.76-5.13-1.96c-2.5,1.01-1.14,3-0.43,4.58c3.8,8.44,7.65,16.85,11.47,25.28c0.6,1.32,1.73,1.75,2.84,1.16
			C250.66,626.16,252.33,625.28,252.91,623.45z M694.71,683.5c0-1-0.09-2,0.02-2.99c0.41-3.7-1.22-5.18-4.89-4.89
			c-4.02,0.32-2.83,3.35-2.38,5.19c1.97,8.07,3.32,16.19,3.64,24.5c0.11,2.7,2.26,3.08,4.37,2.75c2.22-0.35,2.68-1.6,2.18-3.97
			C696.19,697.31,694.81,690.49,694.71,683.5z M683.17,600.22c-7.61,6.69-9.1,14.04-4.51,22.69c2.15,4.05,5.53,1.71,8.32,2
			c1.77,0.19,2.4-1.62,1.9-3.26C686.77,614.59,684.57,607.57,683.17,600.22z M689.99,783.08c0,2.15,0.01,3.81,0,5.46
			c-0.02,2.42,1.23,3.8,3.58,3.81c2.33,0.01,3.05-1.84,3.17-3.73c0.5-7.9,0.86-15.81,1.32-23.71c0.17-2.8-1.53-3.26-3.76-3.36
			c-2.35-0.11-3.21,1-3.31,3.25C690.71,771.05,690.31,777.31,689.99,783.08z M489.5,877.36c-4.97-3.05-9.71-6.03-14.53-8.87
			c-1.46-0.86-3.31-1.3-4.52,0.35c-1.07,1.47-1.02,3.2,0.62,4.42C476.46,877.29,481.92,881.08,489.5,877.36z M699.6,800.37
			c-4.2-2.48-8.11-3.84-11.18-1.87c-3.66,2.35-3.4,6.94-3.41,11.83C690.1,806.86,694.54,803.82,699.6,800.37z M710.11,791.87
			c-3.08-0.05-5.25,0.94-6.59,3.46c-0.14,0.26,0.33,1.21,0.47,1.2c2.26-0.19,3.55-2.01,5.2-3.22
			C709.53,793.06,709.68,792.56,710.11,791.87z M673.46,622.76c-0.7,2.16-2.17,3.41-1.09,6.07
			C673.97,626.96,674.73,625.5,673.46,622.76z"/>
		<path class="st1" d="M245.34,429.28c0.09-1.3-0.56-2.3-1.29-3.27c-0.26-0.56-0.51-1.12-0.77-1.69c0,0-0.04-0.31-0.04-0.31
			c-0.1-0.33-0.2-0.67-0.3-1c-0.23-0.66-0.46-1.32-0.7-1.98c0.27-1.39,0.1-2.66-0.93-3.73c-0.11-1.76-0.21-3.53-0.32-5.29
			c0.02-0.12,0.09-0.25,0.07-0.35c-0.06-0.22-0.16-0.42-0.25-0.63c-0.46-10.05-0.19-20.07,0.83-30.08c0.43-1.28,1-2.54,0.66-3.95
			c0.62-1.89,1.24-3.78,1.86-5.68c0.87-0.54,1.21-1.34,1.14-2.33c0.3-0.78,0.61-1.55,0.91-2.33c1.29-1.87,2.59-3.74,3.88-5.61
			c0.97-1.05,1.93-2.11,2.9-3.16c0.58-0.53,1.17-1.07,1.75-1.6c0,0,0.27-0.11,0.27-0.11c0.9,0.02,1.59-0.34,2.03-1.15
			c6.44-2.54,13.09-3.84,20.03-3.37c0.32,0.09,0.64,0.19,0.95,0.28c0.17,0.29,0.4,0.36,0.7,0.21c0.56,0.82,1.37,1.05,2.31,0.95
			c1.07,0.4,2.15,0.79,3.23,1.19c0.54,0.4,1.08,0.8,1.62,1.2c2.63,2.88,5.25,5.76,7.88,8.64c0.37,0.45,0.74,0.91,1.11,1.36
			c0.46,1.96,0.82,3.96,2.27,5.5c0.35,1.01,0.71,2.01,1.06,3.02c1.84,5.33,3.68,10.66,5.52,15.99c0.13,0.66,0.26,1.33,0.38,1.99
			c0.86,4.34,1.72,8.67,2.58,13.01c-0.56,1.5,0.19,2.61,1.11,3.66c0.16,0.78,0.32,1.57,0.48,2.36c-0.07,1.2,0.58,1.99,1.53,2.59
			l-0.04,0.27c0,0,0.24,0.14,0.24,0.14c0.39,1.31,0.79,2.63,1.18,3.94c0.24,3.41,1.5,6.43,3.52,9.16c0.36,0.53,0.72,1.05,1.09,1.58
			c0,0,0.12,0.29,0.12,0.29c0.35,1.89,0.47,3.86,1.98,5.31c0.57,1.81,1.14,3.62,2.78,4.82c0.08,0.9,0.34,1.68,1.29,2.01
			c0.96,2.17,3.24,2.67,4.93,3.92c0.76,1.33,1.54,1.64,2.35,0.04c1.25-1.09,1.55-2.57,1.67-4.12c0.15-0.67,0.3-1.33,0.46-2
			c0.21-0.66,0.43-1.31,0.64-1.97c0.89-1.2,0.99-2.57,0.83-3.99c0.14-1.77,0.28-3.54,0.42-5.31c0.82-0.7,0.95-1.64,0.91-2.65
			c0.73-0.53,0.86-1.26,0.71-2.09c0.21-1,0.41-1.99,0.62-2.99c2.45-2.5,2.84,0.33,3.78,1.51c3.63,4.56,4.37,11,9.5,14.59
			c0.13,0.78,0.27,1.56,1.23,1.77c0.06,0.3,0.23,0.41,0.52,0.32c0.61,0.89,1.33,1.62,2.47,1.76c1.34,1.36,2.69,2.71,4.03,4.07
			c0.28,0.39,0.56,0.78,0.84,1.18c0,0-0.06-0.09-0.06-0.09c0.31,0.55,0.61,1.1,0.92,1.64c2.35,7.19,8.81,11.1,13.33,16.55
			c0.83,1,2.1,0.73,2.85-0.54c0.71,0.04,1.41,0.09,2.12,0.13c1.27,1.71,2.54,3.41,3.81,5.12c-0.03,0.74,0.43,1.06,1.06,1.23
			c1.23,1.31,2.45,2.62,3.68,3.93c0.21,0.73,0.6,1.27,1.42,1.37c0.31-0.07,0.63-0.14,0.94-0.21c0.46-0.39,0.92-0.78,1.38-1.18
			c1.73-1.07,2.74,0.62,4.07,1.08c1.11,1.17,2.42,1.98,3.65,0.41c1.15-1.46,0.27-2.68-1.07-3.58c-1.25-1.37-2.51-2.74-3.76-4.11
			c-0.36-0.44-0.72-0.89-1.08-1.33c-1.17-1.64-1.97-3.61-4.02-4.45c-2.73,0.16-1.12,1.7-0.89,2.8c0.33,0.88,0.65,1.77,0.98,2.65
			c-0.75-0.08-1.5-0.15-2.26-0.23c-0.89-0.82-1.78-1.64-2.68-2.45c-0.36-0.52-0.72-1.04-1.07-1.56c-2.64-4.48-5.28-8.96-7.92-13.43
			c-0.05-0.89-0.42-1.59-1.24-2.01c-0.24-1.18-0.66-2.26-1.63-3.05c-0.29-0.93-0.99-1.29-1.86-1.03c-0.21,0.06-0.23,0.78-0.33,1.2
			c0.49,2.28,0.98,4.56,1.48,6.85c-0.68,0.14-1.35,0.27-2.03,0.41c-3.2-2.39-3.34-6.96-6.62-9.29c-0.3-0.49-0.6-0.97-0.89-1.46
			c-0.88-1.91-1.33-4.04-2.84-5.62c-0.24-0.77-0.41-1.56-0.72-2.29c-0.83-1.99-1.12-5.5-3.49-5.02c-2.36,0.47,0.17,3.65-0.62,5.53
			c-2.59,0.56-3-1.43-3.64-3.12c-1.12-2.98-2.67-5.71-4.93-7.99c-0.15-2.99-1.16-5.7-2.64-8.26c0,0,0.07,0.1,0.07,0.1
			c-0.35-0.86-0.7-1.71-1.05-2.57c-1.19-3.73-1.17-7.49-0.39-11.29c0.24-0.66,0.47-1.33,0.71-1.99c0.38-1.01,0.76-2.01,1.14-3.02
			c1.09-2.2,1.63-4.55,1.81-6.99c0.2-1.16,0.41-2.31,0.61-3.47c1.21-0.87,1.4-2.19,1.56-3.52c0.58-1.39,1.74-2.56,1.62-4.22
			c0.83-0.75,1.13-1.69,1.02-2.78c0.12-0.67,0.25-1.33,0.37-2c0.07-0.33,0.14-0.65,0.21-0.98c0.17-0.73,0.34-1.46,0.51-2.19
			c0.37-0.94,0.75-1.89,1.13-2.83c1.15-1.76,2.33-3.51,2.53-5.7c1.11-0.86,1.07-2.08,1.01-3.3c0.98-2.23,2.63-4.17,3-6.67
			c0.92-0.46,1.18-1.26,1.14-2.22c0.83-0.98,1.02-2.15,1-3.38c3.5-9.07,9-17.31,11.25-26.91c0.31-1.31,0.86-2.64-0.51-3.63
			c-1.19-0.85-2.13,0.11-3.18,0.58c-5.23,2.34-8.84,0.56-9.77-4.99c-0.6-3.58-0.81-7.12,0.51-10.76c2.02-5.6,3.6-11.37,5.25-17.1
			c0.46-1.61,2.09-3.55-0.18-4.92c-2.43-1.48-3.03,1.07-4.12,2.31c-2.99,3.42-6.41,6.18-11.23,4.84c-4.31-1.2-4.28-5.45-5.24-8.9
			c-0.09-0.32-0.08-0.68-0.22-0.97c-1.03-2.18,0.78-5.79-2.02-6.67c-2.58-0.81-3.06,2.91-4.8,4.33c-6.51,5.33-10.59,4.25-12.81-3.95
			c-1.41-5.22-3.86-10.27-3.03-15.93c0.12-0.84-0.11-1.72-1.02-2.07c-1.01-0.39-1.42,0.42-1.93,1.08c-0.81,1.05-1.6,2.14-2.59,3.01
			c-1.9,1.67-3.32,4.99-6.46,3.56c-2.77-1.27-4.05-4.24-4.78-7.21c-0.33-1.35,0.62-3.48-1.32-3.83c-1.74-0.31-1.91,1.91-2.74,3.04
			c-1.91,2.59-4.74,3.27-7.5,2.57c-2.79-0.71-1.9-3.55-1.86-5.58c0.05-2.14,0.55-4.28,0.79-6.42c0.19-1.62,0.85-3.63-1.01-4.48
			c-1.66-0.76-2.68,1.01-3.53,2.13c-1.08,1.44-2.15,2.67-4.09,2.05c-2.03-0.65-3.24-2.21-3.97-4.18c-0.99-2.64,1.63-7.01-2.07-7.8
			c-2.17-0.46-5.07,2.5-7.64,3.93c-0.14,0.08-0.26,0.2-0.4,0.3c-2.34,0.16-4.28-0.24-4.38-3.17c-0.96-4.64,0.74-9.27,0.07-13.9
			c0.09-0.68,0.18-1.36,0.28-2.04c0.99-1.54,1.04-3.27,1.07-5.01c0.34-1.26,0.67-2.51,1.01-3.77c0.58-0.2,0.92-0.55,0.78-1.21
			c4.65-12.54,10.76-24.38,19.33-34.61c10.33-12.33,21.15-24.26,35.08-32.86c7.61-4.7,14.52-10.48,22.69-14.32
			c13.5-6.35,26.88-13.26,41.39-16.77c14.79-3.57,29.86-5.93,45.2-6.73c16.62-0.87,33.21-1.18,49.81-0.4
			c10.92,0.51,22.12-0.48,32.68,2.41c8.92,2.44,18.01,4.16,26.95,6.4c9.63,2.41,19.18,5.24,28.5,8.35
			c11.11,3.7,22.11,8.09,32.68,13.36c7.85,3.91,15.78,7.6,23.43,11.93c10.57,5.99,20.31,13.04,29.63,20.78
			c10.22,8.49,19.61,17.87,28.16,27.95c7.91,9.32,14.39,19.69,19.65,30.91c3.23,6.89,5.49,13.73,6.5,21.56
			c-6.18-0.44-12.13-1.54-18.04-0.17c-1.62,0.38-4.33,0.09-3.59,2.87c0.64,2.41,2.64,1.11,4.15,0.59
			c7.98-2.74,15.07-0.27,21.74,3.93c4.23,2.66,6.11,8.18,4.68,12.77c-0.71,2.27-2.12,3.92-4.82,3.05
			c-6.63-2.14-13.36-1.67-20.12-1.04c-3.85,0.36-6.63,2.88-9.75,4.72c-0.74,0.44-1.39,1.07-1.06,2.01c0.45,1.28,1.5,1.04,2.49,0.74
			c3.17-0.97,6.28-2.41,9.53-2.82c7.43-0.94,14.85-0.65,21.59,3.22c7.13,4.1,9.59,12.78,5.98,19.85c-1.42,2.78-2.59,2.9-4.75,0.66
			c-4.32-4.5-9.21-8.14-15.74-8.79c-4.1-0.41-7.2,0.68-9.78,4.31c-5.79,8.17-14.75,12.76-22.48,18.69
			c-4.45,3.41-9.55,5.98-14.41,8.83c-5.14,3-7.23,2.51-10.92-2.14c-2.01-2.53-3.97-2.68-5.94,0.21c-1.44,2.1-2.96,5.51-5.37,4.94
			c-1.85-0.44-1.85-4.24-2.08-6.71c-0.05-0.49-0.15-0.99-0.31-1.46c-0.45-1.28-0.05-3.54-2.18-3.21c-1.66,0.25-2.17,2.42-1.89,3.7
			c1.27,5.82,1.59,11.96,4.54,17.28c2.08,3.75,3.62,7.8,6.6,11.11c3.6,3.98-0.31,7.35-2.08,10.2c-3.39,5.49-7.41,10.46-15.42,9.22
			c-3.28-0.51-6.86,0.93-10.3,1.51c-1.52,0.25-3.41,0.67-3.25,2.44c0.2,2.17,2.43,1.96,3.99,1.88c1.81-0.1,3.59-0.65,5.38-1.01
			c3.25-0.65,6.43-1.26,9.83-0.48c4.98,1.15,8.49-1.43,11.4-5.22c3.08-4,5.02-8.57,7.09-13.09c1.39-3.04,0.05-5.46-1.97-7.67
			c-0.76-0.83-1.88-1.52-1.21-2.95c0.65-1.4,1.78-1.68,3.24-1.79c6.44-0.47,12.31-2.75,17.36-6.66c6.34-4.89,13.56-5.58,21.09-5.34
			c1.65,0.05,3.29,0.61,4.93,0.62c2.33,0.01,5.99,0.96,6.05-2.31c0.05-2.89-3.33-1.43-5.32-1.55c-2.95-0.18-7.11,0.35-8.24-2.09
			c-1.28-2.77,3.1-3.97,4.79-6.04c1.87-2.29,4.61-3.88,6.46-6.19c3.33-4.15,7.38-4.66,12.07-3.31c1.44,0.41,2.85,1.06,4.31,1.22
			c9.48,1.05,14.57,5.95,14.76,15.8c0.12,6.12,1.64,12.15,1.49,18.35c-0.16,6.43-4.04,11.25-6.95,16.31
			c-3.11,5.4-3.6,9.6-0.82,15.66c6.52,14.19,11.16,29.21,13.41,44.73c0.9,6.19,0.05,12.64-1.39,18.79
			c-2.53,10.82-5.14,21.59-8.82,32.15c-2.8,8.04-3.98,16.75-3.95,25.41c0.05,12.79,0.15,25.59-1.82,38.27
			c-0.68,4.41-2.12,8.7-3.14,13.06c-3.04,13-10.62,23.58-17.95,34.37c-6.5,9.57-12.28,19.63-18.78,29.21
			c-9.14,13.48-14.45,29.07-23.53,42.48c-5.86,8.66-15.03,13.38-24.81,17.18c-8.82,3.42-17.91,2.68-26.89,3.63
			c-1.96,0.21-3.83-0.91-5.64-1.81c-2.43-1.2-4.43-2.1-7.76-0.76c-3.53,1.42-7.45-1.95-10.92-3.66c-7.11-3.5-13.99-7.42-19.64-13.24
			c-2.69-2.77-6.95-2.98-10.26-4.87c-1.32-0.75-2.22,0.2-2.94,1.13c-0.85,1.09-0.59,2.21,0.35,3.14c1.88,1.87,3.73,3.79,5.73,5.54
			c2.34,2.05,4.65,4.1,6.97,7.28c-10.63-0.05-20.33-0.08-30.03-1.5c-5.72-0.83-11.42-1.31-17.04-3.01
			c-12.48-3.76-25.35-6.18-37.42-11.31c-9.14-3.88-18.39-7.5-27.47-11.5c-7.3-3.21-13.86-7.67-19.91-12.9
			c-1.03-0.89-2.34-2.54-3.78-0.87c-1.24,1.43-0.75,3.37,0.53,4.54c2.44,2.23,5.01,4.31,7.67,6.32
			c10.19,7.72,21.43,13.64,32.58,19.72c7.36,4.02,15.64,5.45,23.52,7.99c8.67,2.79,17.55,4.95,26.22,7.75
			c3.85,1.25,7.81,1.53,11.68,1.9c8.4,0.79,16.77,1.78,25.15,2.7c6.33,0.69,12.92,0.21,19.26-0.72c3.25-0.48,6.1,0.09,8.59,1.27
			c15.03,7.12,30.6,6.24,46.47,4.26c17.59-2.19,29.68-12.52,39.97-25.69c3.66-4.69,8.68-8.32,11.04-14.02
			c0.51,0.12,1.02,0.24,1.53,0.36c-1.76,11.97-0.67,23.78,1.37,35.65c0.66,3.8,1.92,5.28,5.41,5.5c3.46,0.22,4.82,1.78,5.36,5.57
			c1.19,8.38,0.47,16.96,2.79,25.18c0.73,2.58-0.47,4.13-2.5,5.35c-2.18,1.3-3.34,3.24-3.33,5.75c0.03,11.45,0.1,22.89,0.2,34.34
			c0.03,3.66,1.23,6.84,4.15,9.24c1.65,1.36,2.48,3.17,2.31,5.29c-0.71,8.76-1.32,17.53-2.3,26.26c-0.35,3.12-2.13,5.44-5.87,5.71
			c-12.28,0.87-24.34,3.3-36.41,5.52c-5.43,1-10.07,4.25-15.01,6.62c-1.44,0.69-2.55,2.29-1.62,3.68c1.15,1.72,2.66,0.32,3.78-0.58
			c2.83-2.27,6.22-3.03,9.61-3.85c11.64-2.81,23.57-3.71,35.39-5.35c5.49-0.77,5.4-0.27,4.93,5.05c-0.46,5.3-3.15,8.11-7.49,10.68
			c-23.83,14.05-48.57,26.12-74.59,35.54c-2.69,0.97-5.02,2.02-6.07-1.96c-0.35-1.31-1.52-2.5-3-2.11c-1.72,0.45-1.41,2.34-1.08,3.4
			c1.24,3.92-1.19,4.73-4.08,5.56c-6.71,1.91-13.35,4.05-20.08,5.91c-5.34,1.48-7.33,0.36-8.91-4.78c-0.94-3.07-2.2-5.9-4.57-8.15
			c-1.06-1-2.31-1.61-3.61-0.88c-1.74,0.98-0.69,2.37-0.01,3.41c1.68,2.56,2.66,5.35,3.18,8.33c0.36,2.05,1.2,3.75,4.63,4.57
			c-6.05,1.37-10.72,2.38-15.37,3.49c-2.2,0.52-4.02,0.64-5.67-1.52c-1.35-1.78-3.53-2.13-3.66,0.86c-0.12,2.72-1.71,2.8-3.5,3.07
			c-7.56,1.17-15.13,2.33-22.69,3.47c-5.24,0.79-8.17-3.87-12.46-5.47c-4.12-1.53-7.65-4.61-11.49-6.92
			c-2.81-1.69-4.21-3.83-2.48-7.01c1.27-2.32,0.71-4.08-1.18-5.72c-11.41-9.92-22.71-19.96-34.87-28.98
			c-2.25-1.67-4.64-2.64-7.44-1.51c-2.39,0.97-4.21-0.11-5.88-1.62c-4.06-3.69-8.1-7.4-12.12-11.14c-0.81-0.75-2.11-1.51-1.39-2.86
			c0.74-1.38,2.14-0.56,3.15-0.36c10.75,2.11,21.53,4.07,32.19,6.57c4.62,1.08,9.17,0.89,13.78,1.2
			c15.39,1.04,30.74,2.58,46.12,3.83c7.09,0.57,14.28,2.87,20.31,7.43c1.33,1.01,3.29,2.77,4.64,0.54c1.07-1.77-1.16-2.96-2.39-3.82
			c-10.15-7.13-21.18-10.42-33.86-11.09c-17.32-0.91-34.74-2.02-51.9-5.41c-11.88-2.34-23.94-3.75-35.57-7.28
			c-1.37-0.42-3.06-0.21-3.67-2.05c-2.69-8.07-9.77-12.44-15.54-17.75c-5.72-5.27-12.33-9.57-18.5-14.35
			c-1.92-1.49-3.74-2.76-6.32-1.64c-1.95,0.85-3.05-0.54-4.2-1.81c-6.46-7.15-12.89-14.32-19.45-21.38
			c-2.42-2.6-2.38-5.06-0.06-7.43c1.94-1.99,2.29-3.7,0.54-6.06c-7.5-10.17-15.29-20.09-24.46-28.83c-2.44-2.33-4.71-5.38-8.93-2.55
			c-1.84,1.23-3.35-0.52-4.49-2.07c-5.91-8.02-11.78-16.08-18.38-23.56c-1.89-2.14-2.36-4.41,0-6.57c2.1-1.91,1.11-3.57,0.14-5.72
			c-5.5-12.23-14.1-22.79-23.63-31.18c-8.17-7.2-11.49-16.02-16.44-24.48c-0.84-1.43-1.78-3.03-1.42-4.69
			c2.51-11.4-1.99-21.97-3.85-32.84c-0.43-2.53-0.55-3.92,2.11-5.53c13.14-7.94,19-20.02,20.1-35.16
			c1.11-15.32,1.23-30.53-1.37-45.69c-0.47-2.72-1.2-5.4-2.14-9.54c5.08,4.61,8.9,8.55,13.19,11.87
			c11.26,8.71,19.32,19.51,25.16,32.62c5.74,12.89,17.05,19.2,31.13,19.4c4.91,0.07,6.44,1.38,7,6.22
			c1.54,13.33,7.87,24.84,15.05,35.89c1.97,3.04,4.18,5.93,6.23,8.92c1.19,1.74,2.98,2.7,4.67,1.6c1.97-1.27,0.16-2.84-0.46-4.3
			c-2.5-5.88-7.3-10.21-10.35-15.77c-7.25-13.22-10.13-27.54-11.34-42.33c-0.11-1.33,0.05-2.7-0.65-3.86
			c-0.86-1.42-1.68-1.82-2.83,0.02c-3.61,5.79-7.13,7-13.69,5.61c-11.63-2.46-19.3-8.8-23.75-20.23
			c-3.36-8.65-7.51-17.1-16.06-22.82c-9.54-6.37-15.82-16.44-24.24-24.18c-0.32-0.48-0.64-0.96-0.96-1.44
			c-0.73-0.84-1.46-1.68-2.2-2.52c0-0.63-0.31-1-0.93-1.11c-3.74-3.55-2.79-9.57-6.83-12.96c-0.31-0.56-0.61-1.12-0.92-1.68
			c-0.47-1.42-0.93-2.84-1.4-4.26C245.73,430.42,245.54,429.85,245.34,429.28z M548.91,468.92c0.21,0.22,0.43,0.42,0.68,0.59
			c-3.81,10.09-1.27,17.66,7.27,21.87c1.76,0.87,3.61,1.63,4.78-0.46c1.13-2.03-0.87-2.86-2.18-3.81c-6.1-4.45-7.22-9.66-3.64-16.46
			c1.71-3.24,3.43-6.43,5.8-9.27c0.78-0.94,1.9-2.18,1.04-3.58c-2.26-3.67-6.62-4.18-9.54-0.89c-8.02,9.02-18.3,15.25-27.72,22.51
			c-10.08,7.77-20.62,14.66-29.57,24.14c-8.5,9-13.56,18.87-16.43,30.4c-0.82,3.3-2.4,7.01-1.58,9.97c1.11,4,0.9,7.85,1.16,11.78
			c0.66,10.12,3.8,19.77,5.63,29.66c0.4,2.18,1.61,4.41,4.45,3.3c2.16-0.85,3.58-2.73,2.58-5.21c-2.38-5.88-3.03-12.08-4.08-18.27
			c-1.81-10.62-1.81-21.1,0.06-31.65c2.38-13.37,11.28-22.8,20.44-31.54C520.74,489.91,534.8,479.35,548.91,468.92z M667.06,472.78
			c0.87,0.77,1.59,1.1,1.78,1.62c2.29,6.17,6.46,11.02,10.53,16.09c4.54,5.66,9.12,11.65,11.95,18.24
			c4.73,11.03,5.95,22.98,5.66,35.01c-0.04,1.52-1.16,3.7,1.18,4.15c1.99,0.39,3.43-1.34,4.03-3.1c0.58-1.69,0.84-3.59,0.77-5.38
			c-0.13-3.14-0.98-6.28-0.88-9.4c0.46-14.95-4.83-28.32-12.51-40.48c-5.65-8.95-13.3-16.64-20.24-24.74
			c-1.08-1.26-1.01-2.32-0.96-3.59c0.55-13.92-5.2-25.58-12.41-37.01c-3.43-5.43-7.39-10.55-8.49-17.66
			c-1.68-10.85-3.29-22.03-10.09-31.42c-1.18-1.63-2.3-3.3-4.27-2.4c-2.24,1.03-1.4,3.24-0.39,4.69c5.31,7.59,7.23,16.33,8.65,25.2
			c0.7,4.4,0.67,8.84,2.71,13.04c5.34,10.97,12.36,21.05,15.31,33.29c2.01,8.34,2.77,16.31,0.43,24.46
			c-1.56,5.44-4.56,10.07-9.92,12.5c-12.27,5.57-25.18,6.97-38.41,5c-2.68-0.4-5.07-0.39-7.75-0.05c-3.82,0.49-8.19,3.78-10.78,2.4
			c-5.83-3.1-11.69,1.78-17.09-1.41c-0.81-0.47-1.76,0.63-2.46,1.38c-0.54,0.57-1.21,1.03-1.82,1.54c-2.91-4.48-5.47-3.34-7.93,0.45
			c-0.08,0.13-0.62-0.07-0.95-0.07c-5.56-0.02-10.7,1.59-15.21,4.71c-1.9,1.31-2.94,1.73-4.42-0.3c-1.65-2.25-3.28-1.42-4.94,0.27
			c-2.93,2.98-5.91,5.96-10.7,3.32c-0.96-0.53-1.62,0.72-2.43,1.18c-3.59,2.04-3.86,7.43-7.12,8.64c-7.29,2.71-7.82,9.95-9.1,14.93
			c-1.42,5.53-2.42,12.5,0.33,18.64c1.82,4.06,0.35,11.41,8.85,8.92c0.42-0.12,1.08,0.7,1.67,1c1.48,0.74,3.05,0.78,4.12-0.52
			c2.17-2.64,4.53-4.26,8.15-3.02c0.57,0.19,1.98-0.44,2.13-0.94c1.16-3.91,4.71-3.78,7.61-4.96c6.28-2.55,11.49-7.49,18.75-7.95
			c5.12-0.32,10.74,1.32,15.08-3.14c0.31-0.32,1.28-0.01,1.95,0.03c3.51,0.19,6.94,0.64,9.79,2.99c1.67,1.37,3.44,1.5,4.9-0.11
			c2.77-3.07,6.25-2.53,9.21-1.26c11.09,4.74,21.51,2.09,31.93-2.12c4.27-1.73,8.51-2.75,12.05,1.56c0.66,0.8,1.66,1.51,2.61,1.16
			c4.68-1.75,7.86,0.18,10.69,3.78c0.98,1.24,2.6,2.61,4.04,2.74c6.97,0.66,6.62,9.59,12.85,11.2c0.62,0.16,0.81,3.59,3.2,3.33
			c2.81-0.3,3.74-2.8,4.12-5.04c2.44-14.38,1.36-28.51-4.3-42.02c-1.5-3.59-4.19-6.87-8.34-8.1c-6.76-2-12.56-5.92-18.65-9.25
			c-0.96-0.53-2.57-1.47-0.76-2.44C658.8,488.08,663.87,481.36,667.06,472.78z M461.86,300.44c9.81-0.7,20.05,0.23,29.33,6.24
			c3.18,2.06,6.78,3.5,10.23,5.13c1.12,0.53,3.07,0.28,2.79,2.1c-0.28,1.78-2.14,1.11-3.36,1.26c-8.9,1.14-17.82,2.08-26.47,4.66
			c-2.34,0.7-4.6,1.5-5.66,3.7c-2.56,5.35-1.95,11.3-2.79,16.98c-0.16,1.11,0.21,2.48,1.77,2.55c1.79,0.08,2.27-1.2,2.15-2.66
			c-0.34-3.89,1.05-7.56,1.34-11.32c0.29-3.77,2.17-4.51,5.3-5.02c6.72-1.09,13.39-2.53,20.07-3.88c8.63-1.75,17.32-5.2,25.46,1.69
			c1.12,0.95,3.19,0.73,4.77,1.2c4.6,1.36,9.39,2.28,10.23,8.51c0.39,2.88,2.05,5.57,3.04,8.38c0.46,1.3,0.79,2.82,2.54,2.39
			c1.67-0.41,1.62-2.1,1.37-3.34c-0.54-2.76-1.42-5.45-2.07-8.2c-0.29-1.25-0.53-3.55,0.97-3.19c5.03,1.21,10.72-2.14,15.04,1.24
			c11.79,9.23,34.25,0.73,41.03-9.2c4.31-6.32,8.79-12.55,10.96-20.02c0.33-1.15,2.07-2.58,0.44-3.48
			c-1.71-0.95-2.53,0.88-3.24,2.22c-3.24,6.19-6.73,12.24-11.71,17.23c-6.45,6.46-13.52,11.91-23.23,12
			c-1.64,0.01-4.42,1.13-4.8-0.92c-0.43-2.29,2.74-1.6,4.13-2.58c1.78-1.26,4.9-1.39,4.31-4.63c-0.68-3.73-8.23-9.65-11.9-9.49
			c-20.95,0.95-40.16-5.64-59.2-13.32c-11.55-4.66-22.45-11.08-36.26-7.73c-12.32,2.99-24.31,6.47-35.81,11.71
			c-1.07,0.49-2.41,1.09-1.78,2.5c0.85,1.89,2.6,1.84,4.27,1.13C443.45,300.71,452.17,300.02,461.86,300.44z M461.69,695.64
			c-0.45-0.59-0.8-1.13-1.23-1.58c-6.21-6.45-14.16-10.54-22.59-11.64c-13.55-1.77-25.08-8.26-37.22-13.34
			c-5.46-2.29-10.5-5.64-15.58-8.74c-8.03-4.9-15.04-11.32-23.36-15.8c-1.2-0.65-2.42-1.59-3.48-0.12
			c-0.84,1.17-1.86,2.56-0.93,4.12c0.67,1.13,1.47,2.29,2.49,3.08c10.25,7.95,21.28,14.74,32.74,20.74
			c10.09,5.28,20.71,9.33,31.65,12.77c9.23,2.9,17.82,7.73,27.69,8.89c2.28,0.27,5.46,0.25,6.59,3.47c0.09,0.25,1.33,0.44,1.72,0.18
			C460.78,697.25,461.13,696.43,461.69,695.64z M617.56,586.23c12.82,0.17,22.6-2.76,32.67-3.59c0.91-0.08,2.58-0.35,2.09-2.1
			c-1.08-3.83-8.19-7.82-12.03-6.46c-2.14,0.76-4.21,0.74-6.36,0.84c-7.47,0.33-14.93,0.66-22.39,1.02
			c-4.94,0.24-9.98,1.23-14.81,0.62c-7.69-0.97-15.29-2.86-22.28-6.55c-1.28-0.68-2.59-0.8-3.58,0.5c-1.02,1.33-0.39,2.56,0.52,3.6
			c0.65,0.73,1.57,1.22,2.27,1.91c5.09,5.02,12.59,4.87,18.3,8.58c2.74,1.78,5.79,2.08,9.04,2.06
			C607.41,586.62,613.83,585.66,617.56,586.23z M541.08,357.5c-0.89-1.85-1.88-3.39-3.83-3.87c-6.27-1.55-12.48-3.82-18.85-4.38
			c-12.21-1.07-24.12,1.67-35.87,4.82c-1.87,0.5-3.57,1.74-5.26,2.8c-1.13,0.71-2.27,1.76-1.34,3.26c0.88,1.42,2.02,0.25,3.08,0
			c5.64-1.34,11.28-2.73,16.96-3.92c3.14-0.66,5.32-0.58,6.04,3.94c1.14,7.23,7.83,9.98,13.37,6.15c2.96-2.05,5.19-4.87,5.38-8.6
			c0.14-2.72,1.43-3.05,3.55-2.52c4.18,1.05,8.55,1.29,12.54,3.17C538.34,359.04,539.98,359.37,541.08,357.5z M701.8,356.73
			c-0.24-1.83-1.63-2.4-2.78-2.81c-11.15-3.95-22.44-7.53-34.47-5.6c-5.87,0.94-11.83,1.84-17.31,4.47
			c-1.27,0.61-2.61,1.36-2.1,2.86c0.51,1.51,2.03,0.59,3.07,0.43c5.74-0.86,11.46-1.78,17.18-2.75c2.7-0.46,3.8,0.04,3.57,3.27
			c-0.47,6.54,2.77,10.83,7.87,11.36c5.2,0.54,9.24-3.33,9.94-10.14c0.28-2.7,0.84-2.62,3.24-2.12
			C693.82,356.5,697.66,359.27,701.8,356.73z M263.47,406.62c-0.2-5.39,1.21-10.53,2.28-15.72c0.62-3,2.1-3.82,4.97-2.47
			c3.15,1.48,6.43,2.71,9.06,5.1c4.28,3.9,8.53,7.84,12.84,11.71c0.94,0.84,1.91,2.07,3.44,1.08c1.46-0.95,1.26-2.34,0.48-3.5
			c-7.06-10.55-15.05-19.82-28.85-21.37c-2.82-0.32-4.82,0.99-6.82,2.38c-1.91,1.33-0.44,2.91,0.08,4.42
			c0.47,1.35-0.42,2.56-0.71,3.83c-1.77,7.62-3.2,15.25-1.34,23.1c0.37,1.55,0.65,2.97,2.69,2.88c2.34-0.11,2.56-1.71,2.45-3.5
			C263.89,411.91,263.67,409.27,263.47,406.62z M289.4,417.87c-4.8-0.06-8.31,0.67-11.34,2.33c-4.15,2.28-8.08,5.59-7.78,10.73
			c0.65,11.09,4.18,21.37,10.94,30.34c0.92,1.22,2.15,3.07,4.06,1.63c1.87-1.4,0.54-3.1-0.34-4.39c-4.39-6.45-5.92-14.04-8.34-21.23
			c-2.36-7.01,2.95-13.53,10.21-13.26c5.22,0.19,10.05,1.74,14.61,4.27c1.71,0.95,3.78,1.34,4.9-0.52c1.14-1.9-0.85-2.89-2.13-3.85
			C299.44,420.36,293.94,418.72,289.4,417.87z M324.01,474.25c-0.04-6.28-4.24-8.1-7.86-10.35c-10.65-6.64-10.81-7.86-1.88-16.5
			c0.86-0.83,2-1.54,1.41-2.84c-0.51-1.13-1.73-1.47-2.97-1.42c-6.23,0.22-12.17,11.25-9.19,16.74c2.73,5.03,7.63,7.17,12.14,9.92
			c1.18,0.72,3.13,1.12,2.79,3.01c-0.28,1.58-1.88,2.3-3.27,2.82c-3.1,1.16-6.28,2.13-9.4,3.25c-1.24,0.44-2.78,0.98-2.38,2.65
			c0.42,1.75,2.06,2.11,3.62,1.87c2.78-0.43,5.9-0.41,8.2-1.75C318.7,479.64,323.73,478.78,324.01,474.25z M463.39,571.31
			c-0.37,0.33-0.92,0.66-1.23,1.15c-1.56,2.41-2.89,5.05-1.92,7.93c3.18,9.47,8.59,17.08,18.31,20.84c1.94,0.75,4.27,1.32,5.34-0.8
			c0.91-1.79-1.31-2.7-2.54-3.72c-7.34-6.06-14.05-12.57-15.7-22.59C465.44,572.88,464.74,572,463.39,571.31z M498.77,272.36
			c-9.32-9.61-28.57-10.89-37.53-3.73C474.65,267.7,486.86,268.64,498.77,272.36z M707.48,348.31c-1.05-1.74-0.55-3.61-0.66-5.4
			c-0.35-5.77-1.54-11.41-2.89-17.01c-0.44-1.84-1.78-3.66-3.81-3.11c-1.74,0.47-0.92,2.5-0.71,3.87
			c0.94,6.19,2.16,12.33,2.14,18.64c0,1.44,0.33,3.01,0.98,4.28c0.6,1.17,1.93,1.83,3.4,1.37
			C707.26,350.55,707.61,349.52,707.48,348.31z M588.54,487.59c1.25,0.32,2.39,0.04,3.05-1.05c0.79-1.3-0.2-2.25-1.11-2.91
			c-3.08-2.24-6.4-4.14-10.2-4.75c-3.24-0.51-8.07,3.47-8.69,6.73c-0.38,2.04,0.66,3.2,2.38,2.49
			C578.83,486.1,583.65,486.61,588.54,487.59z"/>
		<path class="st2" d="M405.37,877.82c-15.8-2.29-31.65-4.29-47.22-7.91c-3.72-0.86-7.4-1.97-11.17-2.59
			c-5.95-0.98-10.91-2.61-11.18-10.04c-0.07-1.76-1.5-4.51-3.69-3.91c-2.27,0.63-1.22,3.39-1.06,5.25c0.11,1.27,0.7,2.51,1.22,4.23
			c-5.28-0.41-9.7-2.81-14.43-3.83c-10.14-2.18-18.33-7.07-24.36-15.68c-1.57-2.25-4.08-6.29-6.77-4.17
			c-2.34,1.85,1.34,4.7,2.89,6.88c0.26,0.37,0.28,0.91,0.4,1.35c-1.78,1.47-3.23,0.15-4.64-0.47c-7.3-3.22-14.56-6.51-21.82-9.8
			c-5.99-2.71-7.84-8.89-10.86-13.83c-9.63-15.73-19.05-31.62-27.89-47.81c-8.59-15.73-17.09-31.51-26.59-46.69
			c-10.83-17.32-22.89-33.74-36.87-48.73c-14.1-15.12-30.09-27.57-48.88-36.31c-3.91-1.82-7.94-3.39-11.96-4.94
			c-3.66-1.42-3.05-3.13-0.22-4.52c7.74-3.81,15.47-7.68,23.42-11.02c11.82-4.96,22.98-11.2,34.45-16.84
			c4.49-2.21,9.36-3.41,14.01-5.07c12.98-4.62,25.17-11.22,38.49-15c3.42-0.97,5.4-0.99,6.46,2.59c0.97,3.27,3.47,4.76,6.47,5.56
			c2.02,0.54,3.93,1.21,4.6,3.36c3.54,11.3,9.47,21.53,14.29,32.26c0.5,1.11,1.14,2.41,0.58,3.32c-2.77,4.54,0.16,7.87,2.12,11.44
			c4.75,8.61,10.44,16.6,16.16,24.58c1.9,2.65,4.13,4.85,7.6,5.12c4.04,0.32,5.13,4,7.03,6.47c5.37,6.97,10.16,14.38,15.94,21.06
			c1.42,1.64,2.27,3.54,1.45,5.95c-1.31,3.83,0.11,6.89,2.56,10.05c6.33,8.15,12.76,16.17,20.55,23.01c2.5,2.19,5.09,4.2,8.56,4.8
			c3,0.52,4.7,3.01,6.58,5.09c6.33,7,12.1,14.51,19.23,20.78c1.28,1.13,2.24,2.46,1.71,4.37c-0.91,3.31-0.21,6.13,2.27,8.64
			c2.23,2.26,0.33,2.91-1.56,2.74c-2.63-0.23-5.27-0.75-7.82-1.44c-16.19-4.37-32.4-8.67-48.19-14.43
			c-5.59-2.04-11.47-3.28-16.9-5.84c-1-0.47-2.41-0.93-2.98,0.59c-0.52,1.37,0.57,2.18,1.65,2.68c2.86,1.34,5.67,2.85,8.66,3.84
			c20.46,6.78,40.34,15.36,61.7,19.37c5.16,0.97,9.99,3.31,15.35,4.08c3.98,0.58,5.85,5.16,9.04,7.55c3.59,2.69,7,5.63,10.5,8.43
			c0.52,0.41,1.11,1.01,1.68,1.03c9.25,0.31,13.32,8.35,19.56,13.1c3.3,2.51,6.32,5.39,9.36,8.22c2.26,2.1,5.08,3.98,3.9,7.9
			c-0.38,1.26,0.75,2.12,1.59,2.93c11.03,10.59,22.72,20.39,35.38,29c1.59,1.09,3.37,1.8,5.17,1.25c3.68-1.12,6.47,0.13,9.16,2.94
			c-2.27,1.48-4.78,0.96-7.08,1c-7.16,0.14-14.33-0.11-21.49,0.16c-3.63,0.14-5.15-0.75-4.84-4.66c0.16-1.99,1.46-5.64-1.88-5.71
			c-3.06-0.06-3.14,3.53-2.94,5.93c0.29,3.69-1.42,4.05-4.46,3.78c-6.8-0.59-13.62-0.89-20.43-1.31c-0.31-2.07,3.38-2.21,2.25-4.67
			c-2.4-5.22-4.1-10.82-7.99-15.25c-0.78-0.89-1.81-1.76-2.99-0.91c-0.91,0.65-0.67,1.88-0.23,2.74c1.7,3.39,2.46,7.15,4.39,10.49
			C403.7,872.62,405.95,874.71,405.37,877.82z M362.42,848.57c0.57,5.04,3.71,9.59,6.7,14.16c0.72,1.1,2.14,1.5,3.57,0.7
			c1.18-0.66,2.05-2.03,1.28-2.83c-3.94-4.11-4.6-9.78-7.33-14.42c-0.62-1.05-1.87-2.19-3.33-1.46
			C362.07,845.33,362.67,846.8,362.42,848.57z"/>
		<path class="st3" d="M307.15,385.7c0.05-0.25,0-0.48-0.13-0.69c-0.28-0.46-0.56-0.93-0.85-1.39c0.09-0.21,0.07-0.4-0.05-0.59
			c0.02-0.94-0.15-1.81-0.9-2.46c-0.11-0.85-0.21-1.7-0.32-2.55c0.07-0.84-0.2-1.53-0.94-1.99c-0.66-1.68-1.32-3.35-1.98-5.03
			c-0.27-0.47-0.53-0.94-0.8-1.41c-0.09-0.53-0.17-1.07-0.26-1.6c-0.25-0.45-0.51-0.89-0.76-1.34c-0.02-2.21-1.61-3.4-3.07-4.66
			c-0.31-0.44-0.63-0.88-0.94-1.32c-1.67-3.47-4.22-6.21-7.14-8.66c-0.64-0.4-1.29-0.8-1.93-1.2c-10.56-6.15-21.73-7.14-32-0.6
			c-7.92,5.04-13.04,13.43-15.66,22.47c-5.38,18.59-4.82,37.13,0.96,55.8c3.12,10.09,8.49,18.95,12.57,28.48
			c-1.15,1.52,0.05,2.39,0.91,3.36c2.28,14.76,4.26,29.54,4.97,44.48c0.21,4.34-0.14,8.57-1.69,12.84
			c-1.86-9.18-3.56-18.37-6.69-27.98c-2.45,2.79-2.24,4.97-1.77,7.54c1.96,10.63,3.56,21.33,3.24,32.19
			c-0.15,5-0.98,9.95-4.05,14.17c-0.98,1.34-2.04,2.85-4.01,2.39c-1.92-0.44-1.5-2.28-1.89-3.67
			c-5.19-18.71-10.65-37.33-17.62-55.47c-0.53-1.37-1.5-2.57-2.26-3.85c-0.88-2.45-1.31-5.17-3.87-6.6
			c-0.19-0.1-1.02,0.39-1.05,0.67c-0.28,2.51,0.76,4.47,2.73,5.97c3.12,10.8,6.37,21.55,9.31,32.4c2.87,10.57,5,21.32,6.62,32.16
			c0.12,0.78,0.33,1.76-0.71,2.1c-1.18,0.39-1.83-0.55-2.44-1.31c-3.68-4.63-6.02-9.87-7.65-15.55c-1.92-6.68-4.8-13.07-6.36-19.89
			c-0.38-1.66-1.31-3.64-3.21-3.12c-2.29,0.63-0.97,2.69-0.7,4.23c0.21,1.23,1.17,2.91-0.36,3.55c-1.58,0.66-2.24-1.16-2.73-2.29
			c-4.91-11.39-10.23-22.57-12.89-34.88c-2.07-9.55-4.15-19.12-6.42-28.63c-0.32-1.33-0.47-3.62-2.3-3.31
			c-1.94,0.32-1.19,2.57-0.91,3.81c2.88,12.93,4.29,26.14,8.14,38.92c4.49,14.89,11.77,28.46,18.45,42.32
			c2.2,4.55,5.97,8.35,9.05,12.47c0.93,1.24,2.04,2.62,1.03,4.04c-1.17,1.65-2.57,0.16-3.96-0.2c-6.03-1.56-8.37-7.02-11.44-11.29
			c-6.71-9.3-10.95-20.02-15.48-30.51c-2.09-4.83-2-10.43-4.96-15.01c-1.44-1.88-0.03-4.78-2.19-6.75c-1.33,2.6-0.57,4.68,0.39,6.75
			c0.9,15.96,8.36,29.59,15.43,43.5c-4.46-2.98-7.35-7.16-9.67-11.73c-6.56-12.95-10.1-26.93-13.92-40.83
			c-2.36-8.58-1.6-17.53-3.94-26.05c-4.12-14.99-3.68-30.34-3.06-45.59c0.83-20.51,5.59-40.15,13.52-59.25
			c6.03-14.52,11.68-29.23,17.8-43.73c3.66-8.68,8.06-17.06,12.21-25.53c10.04-20.48,23.29-38.97,36.05-57.77
			c0.78-1.15,1.26-3.21,3.1-2.76c2.23,0.55,1.38,2.73,1.41,4.25c0.06,2.99-0.01,5.96,1.86,8.53c0.35,0.3,0.71,0.59,1.06,0.89
			c0.24,0.14,0.51,0.21,0.79,0.19c2.83,2.6,5.64,1.01,8.29-0.24c2.29-1.08,3.47-1.14,4.23,1.78c0.94,3.63,3.82,6.06,7.31,6.82
			c2.91,0.64,3.5,1.73,3.71,4.54c0.54,7.15,6.05,10.36,11.77,6.68c3.33-2.15,4.02-0.76,5.33,1.82c3.12,6.11,5.95,6.84,11.26,2.87
			c2.77-2.07,3.45-1.03,3.39,1.74c-0.12,5.31,2.61,9.54,5.32,13.71c3.1,4.78,7.8,5.52,12.21,1.91c2.61-2.14,3.81-2.62,4.82,1.45
			c1.88,7.51,8.11,10.55,15.6,8.19c0.79-0.25,1.61-0.78,2.31-0.1c0.96,0.93,0.11,1.88-0.33,2.68c-2.14,3.89-2.67,8.2-3.18,12.46
			c-1.04,8.67,3.01,16.6,9.34,17.41c3.7,0.47,2.82,1.93,1.69,3.71c-3.24,5.1-5.14,10.74-6.88,16.45c-5.23,10.29-9,21.18-13.02,31.97
			c-0.1,0.11-0.29,0.24-0.28,0.34c0.03,0.28,0.15,0.54,0.23,0.81c-4.35,10.89-6.75,22.34-9.83,33.6c-0.88,3.23-1.46,6.43-1.27,9.77
			c-0.3,0.5-0.59,1-0.89,1.5c-1.41,4.58-3.05,9.1-3.31,13.97c-0.06,1.22,0.02,3-1.51,3.39c-1.87,0.47-2.46-1.35-3.12-2.61
			c-1.15-2.2-2.12-4.5-3.16-6.75c0.08-1.24-0.64-1.95-1.62-2.49c0.09-0.19,0.06-0.35-0.1-0.5c-0.33-0.47-0.65-0.94-0.97-1.41
			c0.05-0.22,0.01-0.42-0.12-0.6c-0.03-0.82-0.24-1.54-1.04-1.94c-0.1-0.35-0.19-0.7-0.29-1.05c0.21-1.14,0.15-2.19-0.92-2.93
			c-2.67-7.16-4.78-14.47-5.74-22.08c0.04-0.88-0.23-1.62-0.97-2.14c-0.4-1.63-0.79-3.26-1.19-4.89
			C307.65,386.56,307.4,386.13,307.15,385.7z M215.97,505.98c-0.58-2.84-1.13-5.76-1.81-8.65c-0.19-0.8-0.84-1.59-1.8-1.19
			c-0.48,0.2-1.05,1.01-1,1.48c0.32,3.12,0.49,6.29,1.87,9.19c0.36,0.75,0.82,1.53,1.82,1.28
			C216.13,507.83,215.88,506.85,215.97,505.98z"/>
		<path class="st4" d="M247.37,828.81c-18.66-9.91-35.83-20.9-52.24-33.1c-51.51-38.33-92.55-85.73-123.16-142.2
			c-1.99-3.66-1.75-4.76,2.06-7.36c9.05-6.16,17.39-4.41,26.81-1.35c13.8,4.49,24.81,13.25,36.34,21.32
			c12.89,9.03,23.05,20.9,33.5,32.48c15.62,17.3,25.95,38.04,38.16,57.59c14.27,22.85,24.63,47.75,38.34,70.86
			C247.33,827.29,247.26,827.64,247.37,828.81z"/>
		<path class="st5" d="M702.53,781.75c1.54-3.32,0.51-7.47,0.46-11.59c-0.05-4.17-0.23-8.2,5.59-9.21c2.7-0.47,4.17-3.3,4.14-6.21
			c-0.15-13.26-0.51-26.53-1.86-39.73c-0.25-2.42-1.58-4.66-4.04-5.26c-3.96-0.97-4.42-3.85-4.95-7.11
			c-1.33-8.17-0.92-16.59-3.35-24.6c-0.65-2.16,0.68-3.08,2.13-3.94c3.56-2.13,4.41-5.3,4.52-9.29c0.27-9.34-0.7-18.59-1.7-27.82
			c-0.5-4.64-2.03-8.77-6.93-11.31c-3.6-1.87-3.54-6.5-4.31-10.17c-0.39-1.87,1.38-2.11,2.72-1.84c6.47,1.27,12.56,2.33,17.3,8.37
			c9.61,12.25,15.83,26.04,20.94,40.47c5.15,14.55,10.15,29.16,14.95,43.83c3.91,11.97,7.42,24.07,11.11,36.11
			c1.12,3.64,0.52,6.53-2.59,9.25c-5.38,4.7-10.64,9.62-15.46,14.89c-8.95,9.78-20.45,15.15-32.5,19.69
			C703.85,788.1,702.24,787.06,702.53,781.75z"/>
		<path class="st6" d="M764.52,742.52c-4.65-14.87-9.34-29.22-13.6-43.69c-5.16-17.52-10.37-34.99-18.19-51.59
			c-3.43-7.27-8.28-13.58-12.24-20.47c-0.81-1.41-2.51-3.06-1.36-4.44c1.52-1.84,3.36,0.19,4.9,0.83
			c11.96,4.96,22.92,12.07,34.73,17.17c16.88,7.29,30.77,18.9,45.83,28.83c4.24,2.8,3.94,8.32,7.49,11.52
			c0.78,0.7-0.4,2.13-1.03,3.1c-13.34,20.56-28.3,39.87-44.97,57.83C765.77,741.93,765.28,742.08,764.52,742.52z"/>
		<path class="st7" d="M357.02,341.02c1.74-5.72,3.63-11.35,6.88-16.45c1.13-1.78,2.01-3.23-1.69-3.71
			c-6.33-0.81-10.37-8.74-9.34-17.41c0.51-4.26,1.04-8.57,3.18-12.46c0.44-0.79,1.28-1.75,0.33-2.68c-0.7-0.68-1.52-0.15-2.31,0.1
			c-7.49,2.37-13.72-0.68-15.6-8.19c-1.02-4.06-2.21-3.58-4.82-1.45c-4.41,3.61-9.11,2.87-12.21-1.91c-2.7-4.17-5.43-8.4-5.32-13.71
			c0.06-2.78-0.62-3.82-3.39-1.74c-5.31,3.97-8.14,3.24-11.26-2.87c-1.31-2.57-2-3.96-5.33-1.82c-5.71,3.68-11.23,0.47-11.77-6.68
			c-0.21-2.81-0.8-3.91-3.71-4.54c-3.49-0.76-6.37-3.19-7.31-6.82c-0.76-2.92-1.94-2.86-4.23-1.78c-2.65,1.25-5.46,2.84-8.29,0.24
			c2.89-0.65,8.15,1.66,6.26-4.99c0.13-0.1,0.25-0.22,0.4-0.3c2.57-1.43,5.47-4.39,7.64-3.93c3.7,0.78,1.08,5.16,2.07,7.8
			c0.74,1.97,1.94,3.53,3.97,4.18c1.94,0.62,3.01-0.61,4.09-2.05c0.84-1.12,1.86-2.89,3.53-2.13c1.87,0.85,1.2,2.86,1.01,4.48
			c-0.25,2.14-0.74,4.27-0.79,6.42c-0.05,2.03-0.94,4.87,1.86,5.58c2.76,0.7,5.59,0.02,7.5-2.57c0.83-1.13,1-3.35,2.74-3.04
			c1.94,0.35,0.98,2.47,1.32,3.83c0.73,2.97,2.01,5.94,4.78,7.21c3.13,1.44,4.56-1.89,6.46-3.56c0.99-0.87,1.78-1.96,2.59-3.01
			c0.51-0.66,0.92-1.48,1.93-1.08c0.91,0.35,1.14,1.23,1.02,2.07c-0.82,5.66,1.62,10.71,3.03,15.93c2.22,8.2,6.3,9.29,12.81,3.95
			c1.74-1.43,2.22-5.14,4.8-4.33c2.8,0.88,0.99,4.48,2.02,6.67c0.14,0.29,0.13,0.65,0.22,0.97c0.96,3.44,0.93,7.7,5.24,8.9
			c4.82,1.34,8.24-1.42,11.23-4.84c1.09-1.24,1.68-3.79,4.12-2.31c2.26,1.37,0.64,3.31,0.18,4.92c-1.65,5.73-3.22,11.5-5.25,17.1
			c-1.31,3.64-1.11,7.18-0.51,10.76c0.93,5.54,4.54,7.32,9.77,4.99c1.05-0.47,1.99-1.43,3.18-0.58c1.37,0.98,0.82,2.31,0.51,3.63
			c-2.25,9.6-7.75,17.84-11.25,26.91C358.89,343.28,359.43,341.25,357.02,341.02z"/>
		<path class="st8" d="M436.44,826.92c1.56,0.09,2.74,1.09,3.89,2.01c9.45,7.58,18.86,15.21,28.29,22.82
			c2.63,2.12,3.2,4.49,1.07,7.34c-2.48,3.32-4.79,6.76-7.35,10.01c-2.12,2.7-4.84,3.1-7.29,0.58c-8.81-9.06-19.53-15.8-29.01-24.05
			c-2.06-1.79-2.72-3-0.97-5.27c2.83-3.68,5.46-7.51,8.24-11.23C434.08,828.08,434.78,826.8,436.44,826.92z M435.88,836.79
			c-3.28,0.54-3.2,2.92-1.82,4.34c5.73,5.91,11.52,11.83,18.55,16.26c1.55,0.98,3.63,1.32,4.88-0.6c1.26-1.93-0.59-3.13-1.72-4.11
			c-5.86-5.09-11.83-10.06-17.81-15.02C437.37,837.18,436.49,837.04,435.88,836.79z"/>
		<path class="st9" d="M694.2,712.9c10.26,0,10.63-0.05,12.05,9.74c1.43,9.86,1.56,19.86,1.32,29.83c-0.07,2.89-1.27,4.94-4.6,4.37
			c-4.8-0.82-9.62-0.56-14.43-0.51c-2.6,0.03-3.57-0.95-3.47-3.52c0.28-6.92,0.54-13.84,0.59-20.77c0.03-4.14-0.49-8.27-0.54-12.41
			c-0.09-6.72-0.01-6.72,6.58-6.74C692.53,712.9,693.37,712.9,694.2,712.9z M698.19,735.82c-0.38-4.29,0.23-8.63-1.25-12.84
			c-0.53-1.51-1.24-2.96-2.93-2.92c-2.05,0.05-2,1.86-2,3.36c0,7.12-0.26,14.26,0.71,21.35c0.22,1.63,0.33,3.6,2.64,3.51
			c2.09-0.08,2.7-1.85,2.79-3.55C698.3,741.78,698.19,738.8,698.19,735.82z"/>
		<path class="st10" d="M687.98,669.32c-0.66,0-1.33,0-1.99,0c-9.54,0-10.52-0.82-10.64-10.29c-0.09-7.29-0.79-14.57-0.12-21.9
			c0.38-4.15,1.82-6.1,6.07-5.93c3.82,0.15,7.65,0.15,11.46,0c3.49-0.14,5.04,1.41,5.64,4.8c1.74,9.68,0.84,19.48,1.52,29.2
			c0.17,2.48-1.25,4.06-3.96,4.06c-2.66,0-5.32,0-7.98,0C687.98,669.3,687.98,669.31,687.98,669.32z M690.92,649.49
			c-0.14,0-0.28,0-0.42,0c0-3.32,0.05-6.63-0.02-9.95c-0.04-1.93-0.47-3.75-2.92-3.87c-2.48-0.13-3,1.75-3.28,3.6
			c-1.06,6.96,0.18,13.92,0.23,20.88c0.01,1.62,1.07,3.4,3.02,3.44c2.2,0.04,3.24-1.67,3.33-3.64
			C691.04,656.48,690.92,652.98,690.92,649.49z"/>
		<path class="st11" d="M323.72,738.92c-2.48-0.05-4.46-1.22-6.06-2.98c-6.11-6.73-12.32-13.37-18.17-20.33
			c-2.35-2.79-2.33-6.14,0.76-8.85c0.25-0.22,0.56-0.35,0.82-0.56c14.06-10.88,12.01-9.36,23.17,3.15c4.17,4.67,7.7,9.9,11.52,14.88
			c0.81,1.05,1.59,2.06,1.24,3.59C336.21,731.33,327.38,738.77,323.72,738.92z M312.59,708.91c-3.34,0.13-3.27,2.24-2.26,3.81
			c4.14,6.44,9.19,12.16,14.76,17.4c1.28,1.2,3.13,1.56,4.46,0c1.24-1.47,0.06-2.73-0.86-3.94c-3.01-3.95-5.92-7.99-9.01-11.88
			C317.74,711.83,315.52,709.59,312.59,708.91z"/>
		<path class="st12" d="M367.3,767.51c1.83,0.01,3.11,0.88,4.25,1.81c8.96,7.37,17.82,14.86,26.83,22.16
			c2.19,1.78,2.24,3.54,0.96,5.6c-1.13,1.82-2.44,3.53-3.77,5.22c-6.4,8.12-6.7,8.39-13.62,1.11c-7.11-7.46-15.52-13.47-22.47-21.08
			c-2.19-2.4-2.63-4.29-0.54-6.89C361.42,772.37,363.47,768.87,367.3,767.51z M370.62,776.17c-1.46,0.05-2.38,0.51-2.74,1.52
			c-0.59,1.71-0.2,3.26,1.12,4.56c5.44,5.37,11.17,10.41,17.18,15.12c1.32,1.04,3.03,2.02,4.44,0.34c1.47-1.75,0.5-3.48-0.9-4.82
			c-5.4-5.15-10.83-10.27-16.33-15.32C372.58,776.84,371.36,776.54,370.62,776.17z"/>
		<path class="st13" d="M281.97,656.07c0.15,1.53-0.85,2.27-1.71,3.01c-3.15,2.69-6.32,5.35-9.54,7.96c-2.8,2.27-5.1,0.96-6.75-1.45
			c-5.43-7.93-11.28-15.58-16-24c-1.41-2.5-1.26-4.49,0.81-6.17c2.7-2.18,5.53-4.24,8.46-6.08c1.65-1.04,3.61-0.95,4.96,0.78
			c6.43,8.23,12.81,16.49,19.19,24.75C281.68,655.25,281.81,655.75,281.97,656.07z M254.6,640.19c4.18,6.83,8.67,14.28,15.23,20.21
			c1.07,0.96,2.54,0.72,3.59-0.41c1.11-1.2,0.72-2.54-0.06-3.65c-2.36-3.39-4.82-6.7-7.23-10.06c-2.12-2.96-4.18-5.95-6.3-8.91
			c-1.01-1.41-2.5-1.66-4-1.12C254.46,636.74,254.88,638.16,254.6,640.19z"/>
		<path class="st10" d="M230.04,560.9c0.68-0.07,1.36-0.13,2.04-0.2c0.36-0.22,0.73-0.44,1.09-0.66c1.45-0.63,2.85-1.19,3.32,1.13
			c1.7,8.45,3.48,16.89,5.06,25.36c0.38,2.06-0.63,3.58-3.07,3.52c-4.66-0.11-9.31-0.27-13.97-0.32c-3.63-0.04-4.93-2.37-5.28-5.43
			c-0.93-8.08-1.7-16.17-2.62-24.25c-0.31-2.75,0.29-4.03,3.17-2.49c1.64,0.88,3.3,1.57,5.19,1.6c-3.91,7.42,0.45,13.99,2.2,20.81
			c0.4,1.53,1.76,2.5,3.52,1.89c1.74-0.6,1.97-2.17,1.69-3.68c-0.57-3.09-1.73-6.13-1.87-9.23
			C230.39,566.26,227.96,563.68,230.04,560.9z"/>
		<path class="st13" d="M426.87,827.12c-0.58,2.26-2.15,3.8-3.73,5.2c-1.65,1.46-3.04,0.27-4.32-0.92
			c-6.59-6.08-13.16-12.18-19.82-18.19c-2.09-1.89-1.87-3.45-0.21-5.53c1.38-1.73,2.65-2.48,4.57-1.11
			c8.13,5.79,15.11,12.94,22.76,19.29C426.46,826.16,426.62,826.69,426.87,827.12z"/>
		<path class="st14" d="M301.88,696.56c0.17,1.77-1.14,2.37-2.29,2.95c-1.56,0.77-3.08,1.09-4.38-0.69
			c-5.96-8.13-12.01-16.2-17.96-24.33c-1.07-1.46-2.28-3.25-0.3-4.82c1.67-1.32,3.94-1.81,5.37,0.08
			c6.41,8.44,12.64,17.02,18.92,25.55C301.52,695.69,301.69,696.18,301.88,696.56z"/>
		<path class="st15" d="M359,765.01c-0.38,1.85-1.58,2.77-2.9,3.48c-1.23,0.66-2.19,0.02-3-0.99c-6.11-7.64-12.38-15.13-19.7-21.68
			c-1.4-1.25-2.17-3.14-0.31-4.79c1.51-1.33,3.52-1.9,4.95-0.32c6.81,7.49,13.46,15.12,20.14,22.73
			C358.59,763.91,358.78,764.58,359,765.01z"/>
		<path class="st15" d="M252.91,623.45c-0.59,1.83-2.25,2.71-3.8,3.54c-1.11,0.59-2.25,0.16-2.84-1.16
			c-3.82-8.43-7.67-16.84-11.47-25.28c-0.71-1.58-2.07-3.56,0.43-4.58c1.97-0.8,3.93-0.06,5.13,1.96
			c4.68,7.85,8.32,16.22,12.17,24.48C252.66,622.71,252.76,623.03,252.91,623.45z"/>
		<path class="st15" d="M694.71,683.5c0.1,6.99,1.49,13.81,2.93,20.59c0.5,2.36,0.04,3.62-2.18,3.97c-2.11,0.33-4.26-0.05-4.37-2.75
			c-0.33-8.31-1.67-16.43-3.64-24.5c-0.45-1.84-1.63-4.87,2.38-5.19c3.67-0.29,5.29,1.19,4.89,4.89
			C694.62,681.5,694.71,682.51,694.71,683.5z"/>
		<path class="st10" d="M683.17,600.22c1.4,7.35,3.6,14.37,5.71,21.42c0.49,1.65-0.13,3.45-1.9,3.26c-2.79-0.29-6.16,2.05-8.32-2
			C674.07,614.27,675.56,606.91,683.17,600.22z"/>
		<path class="st14" d="M689.99,783.08c0.33-5.76,0.73-12.02,1.01-18.28c0.1-2.24,0.96-3.35,3.31-3.25c2.23,0.1,3.92,0.56,3.76,3.36
			c-0.47,7.9-0.82,15.81-1.32,23.71c-0.12,1.88-0.84,3.74-3.17,3.73c-2.35-0.01-3.6-1.39-3.58-3.81
			C690,786.88,689.99,785.23,689.99,783.08z"/>
		<path class="st16" d="M230.04,560.9c-2.08,2.78,0.36,5.36,0.48,8.05c0.14,3.1,1.3,6.14,1.87,9.23c0.28,1.51,0.05,3.08-1.69,3.68
			c-1.76,0.61-3.12-0.36-3.52-1.89c-1.76-6.81-6.12-13.39-2.2-20.81C227.14,558.34,228.39,560.2,230.04,560.9z"/>
		<path class="st17" d="M405.37,877.82c0.58-3.11-1.67-5.2-2.99-7.48c-1.93-3.34-2.7-7.09-4.39-10.49
			c-0.43-0.86-0.67-2.09,0.23-2.74c1.19-0.86,2.21,0.02,2.99,0.91c3.89,4.44,5.59,10.03,7.99,15.25c1.13,2.46-2.56,2.6-2.25,4.67
			C406.42,877.9,405.9,877.86,405.37,877.82z"/>
		<path class="st15" d="M489.5,877.36c-7.58,3.71-13.04-0.08-18.43-4.1c-1.64-1.22-1.69-2.95-0.62-4.42
			c1.21-1.65,3.06-1.21,4.52-0.35C479.79,871.33,484.53,874.31,489.5,877.36z"/>
		<path class="st13" d="M699.6,800.37c-5.06,3.46-9.51,6.49-14.58,9.96c0-4.89-0.25-9.48,3.41-11.83
			C691.49,796.53,695.4,797.89,699.6,800.37z"/>
		<path class="st7" d="M352.49,433.11c0.8-1.88-1.73-5.06,0.62-5.53c2.38-0.48,2.66,3.03,3.49,5.02c0.31,0.74,0.48,1.53,0.72,2.29
			C355.52,434.85,355.53,429.86,352.49,433.11z"/>
		<path class="st17" d="M219.9,483.01c-1.98-1.51-3.01-3.47-2.73-5.97c0.03-0.27,0.87-0.77,1.05-0.67c2.56,1.43,2.99,4.15,3.87,6.6
			C221.37,482.98,220.63,483,219.9,483.01z"/>
		<path class="st7" d="M262.76,215.09c0.67,4.64-1.03,9.26-0.07,13.9C259.27,224.34,262.13,219.72,262.76,215.09z"/>
		<path class="st18" d="M710.11,791.87c-0.43,0.69-0.58,1.19-0.92,1.44c-1.65,1.22-2.95,3.03-5.2,3.22
			c-0.13,0.01-0.61-0.94-0.47-1.2C704.86,792.81,707.03,791.82,710.11,791.87z"/>
		<path class="st17" d="M188.19,493.02c-0.96-2.07-1.72-4.15-0.39-6.75c2.16,1.98,0.75,4.87,2.19,6.75
			C189.39,493.02,188.79,493.02,188.19,493.02z"/>
		<path class="st7" d="M343.59,387.99c-0.18,2.44-0.72,4.78-1.81,6.99C340.4,392.14,341.22,389.86,343.59,387.99z"/>
		<path class="st7" d="M341.3,413.74c1.48,2.56,2.49,5.27,2.64,8.26C342.01,419.58,340.94,416.88,341.3,413.74z"/>
		<path class="st7" d="M396,471.03c1.34,0.91,2.22,2.13,1.07,3.58c-1.23,1.56-2.54,0.76-3.65-0.41
			C395.43,474.08,396.15,472.91,396,471.03z"/>
		<path class="st7" d="M250.1,361.04c-1.29,1.87-2.59,3.74-3.88,5.61C247.01,364.43,246.48,361.3,250.1,361.04z"/>
		<path class="st18" d="M367.69,451.27c0.68-0.14,1.35-0.27,2.03-0.41c1.24,1,1.17,2.54,1.58,3.88c-0.32,0.3-0.64,0.59-0.96,0.89
			C369.45,454.17,368.57,452.72,367.69,451.27z"/>
		<path class="st7" d="M311.21,417.95c-0.39-1.31-0.79-2.63-1.18-3.94C312.75,414.62,312.36,416.17,311.21,417.95z"/>
		<path class="st19" d="M673.46,622.76c1.27,2.74,0.51,4.2-1.09,6.07C671.29,626.18,672.76,624.93,673.46,622.76z"/>
		<path class="st19" d="M671.17,632.96c-0.51-0.12-1.02-0.24-1.53-0.36c0.18-1.48,0.52-2.87,1.99-3.74
			C672.52,630.38,671.82,631.67,671.17,632.96z"/>
		<path class="st7" d="M317.91,434.3c-1.51-1.45-1.63-3.43-1.98-5.31C317.73,430.33,318.16,432.19,317.91,434.3z"/>
		<path class="st7" d="M264.11,208.04c-0.04,1.74-0.08,3.48-1.07,5.01C261.47,210.97,263.12,209.57,264.11,208.04z"/>
		<path class="st7" d="M315.79,416.09c1.07,0.74,1.12,1.79,0.92,2.93C314.87,418.53,314.59,417.54,315.79,416.09z"/>
		<path class="st7" d="M335.52,419.98c-0.21,1-0.41,1.99-0.62,2.99C333.61,421.67,333.67,420.64,335.52,419.98z"/>
		<path class="st7" d="M332.86,433.02c0.16,1.42,0.05,2.79-0.83,3.99C330.33,435.27,332.02,434.23,332.86,433.02z"/>
		<path class="st7" d="M242.3,376.99c0.35,1.41-0.23,2.67-0.66,3.95C240.81,379.45,240.44,378.04,242.3,376.99z"/>
		<path class="st7" d="M384.97,466.35c0.75,0.08,1.5,0.15,2.26,0.23c0.4,0.68,1.13,1.68-0.01,1.95
			C385.81,468.86,385.73,467.1,384.97,466.35z"/>
		<path class="st7" d="M386.25,463.92c-0.23-1.1-1.84-2.64,0.89-2.8C387.08,462.14,387.08,463.16,386.25,463.92z"/>
		<path class="st7" d="M241.31,417.3c1.02,1.06,1.2,2.34,0.93,3.73C240.54,420.13,241.12,418.67,241.31,417.3z"/>
		<path class="st7" d="M307.82,408.64c-0.93-1.05-1.68-2.15-1.11-3.66C308.53,405.76,307.93,407.28,307.82,408.64z"/>
		<path class="st7" d="M345.76,381c-0.16,1.33-0.36,2.65-1.56,3.52C344.09,383.07,343.59,381.44,345.76,381z"/>
		<path class="st7" d="M253.88,460.33c-0.87-0.97-2.07-1.84-0.91-3.36C254.29,457.81,254,459.09,253.88,460.33z"/>
		<path class="st7" d="M298.22,373.99c-0.35-1.01-0.71-2.01-1.06-3.02C299.16,371.4,299.54,372.4,298.22,373.99z"/>
		<path class="st18" d="M371.29,454.73c0.87,0.71,2.03,1.25,1.88,2.63c-0.03,0.31-0.62,0.81-0.92,0.79
			c-1.52-0.11-1.48-1.53-1.92-2.53C370.65,455.33,370.97,455.03,371.29,454.73z"/>
		<path class="st7" d="M331.38,438.98c-0.15,0.67-0.3,1.33-0.46,2C329.67,439.99,330.16,439.4,331.38,438.98z"/>
		<path class="st7" d="M309.83,413.59c-0.95-0.6-1.59-1.39-1.53-2.59C309.84,411.25,310.05,412.29,309.83,413.59z"/>
		<path class="st7" d="M350.6,366c-0.38,0.94-0.75,1.88-1.13,2.83C348.98,367.54,349,366.45,350.6,366z"/>
		<path class="st7" d="M348.39,373.99c0.12,1.09-0.19,2.03-1.02,2.78C347,375.59,346.96,374.52,348.39,373.99z"/>
		<path class="st7" d="M303.96,376.04c0.74,0.46,1.01,1.15,0.94,1.99C303.69,377.79,302.54,377.52,303.96,376.04z"/>
		<path class="st7" d="M304.12,391.98c-0.13-0.66-0.26-1.33-0.38-1.99C304.94,390.45,305.37,391.05,304.12,391.98z"/>
		<path class="st7" d="M368.24,444.01c0.11-0.42,0.12-1.14,0.33-1.2c0.87-0.26,1.57,0.1,1.86,1.03
			C369.7,443.9,368.97,443.96,368.24,444.01z"/>
		<path class="st7" d="M377.06,462.86c-0.71-0.04-1.41-0.09-2.12-0.13c0.14-0.65,0.31-1.37,1.12-1.31
			C376.86,461.47,376.97,462.21,377.06,462.86z"/>
		<path class="st7" d="M340.63,397.99c-0.24,0.66-0.47,1.33-0.71,1.99C338.55,398.75,339.41,398.31,340.63,397.99z"/>
		<path class="st7" d="M353.03,439.93c-1.15-0.14-1.86-0.87-2.47-1.76C351.94,437.97,352.88,438.39,353.03,439.93z"/>
		<path class="st7" d="M319.24,424.52c0.98,0.55,1.7,1.26,1.62,2.49C319.34,426.82,318.99,425.87,319.24,424.52z"/>
		<path class="st7" d="M354.14,357c0.06,1.22,0.1,2.44-1.01,3.3C353.04,359.07,352.81,357.79,354.14,357z"/>
		<path class="st7" d="M358.28,348.11c0.04,0.96-0.22,1.76-1.14,2.22C357.06,349.35,357.18,348.48,358.28,348.11z"/>
		<path class="st7" d="M287.09,350.83c0.64,0.4,1.29,0.8,1.93,1.2C288.15,351.99,287.4,351.77,287.09,350.83z"/>
		<path class="st7" d="M281.05,353.09c-0.94,0.09-1.75-0.13-2.31-0.95C279.68,352.02,280.53,352.16,281.05,353.09z"/>
		<path class="st7" d="M321.97,441.13c-0.95-0.34-1.21-1.12-1.29-2.01C321.79,439.36,321.99,440.18,321.97,441.13z"/>
		<path class="st7" d="M257.05,355.02c-0.44,0.81-1.13,1.16-2.03,1.15C255.39,355.25,256.15,355.01,257.05,355.02z"/>
		<path class="st7" d="M254.75,356.28c-0.58,0.53-1.17,1.07-1.75,1.6C253.14,356.87,253.58,356.18,254.75,356.28z"/>
		<path class="st7" d="M350.03,437.85c-0.96-0.21-1.1-0.99-1.23-1.77C349.72,436.32,349.99,437.01,350.03,437.85z"/>
		<path class="st7" d="M245.3,368.98c0.07,1-0.27,1.8-1.14,2.33C244.06,370.31,244.24,369.43,245.3,368.98z"/>
		<path class="st7" d="M329.26,445.1c-0.81,1.59-1.59,1.29-2.35-0.04C327.69,445.07,328.47,445.08,329.26,445.1z"/>
		<path class="st7" d="M334.19,425.06c0.05,1-0.08,1.94-0.91,2.65C333.06,426.65,333.05,425.66,334.19,425.06z"/>
		<path class="st7" d="M372.06,446.9c0.82,0.42,1.19,1.11,1.24,2.01C372.24,448.63,372.04,447.83,372.06,446.9z"/>
		<path class="st7" d="M305.23,380.57c0.75,0.66,0.92,1.53,0.9,2.46C305.11,382.48,305.07,381.56,305.23,380.57z"/>
		<path class="st7" d="M309.09,391.88c0.74,0.52,1,1.26,0.97,2.14C309.18,393.56,309.04,392.76,309.09,391.88z"/>
		<path class="st7" d="M340.32,411.27c0.35,0.86,0.7,1.71,1.05,2.57C340.04,413.38,340.08,412.37,340.32,411.27z"/>
		<path class="st7" d="M317,420.07c0.8,0.4,1.02,1.12,1.04,1.94C317.25,421.6,317.03,420.89,317,420.07z"/>
		<path class="st7" d="M242.94,423.01c0.1,0.33,0.2,0.67,0.3,1C242.59,423.84,242.24,423.58,242.94,423.01z"/>
		<path class="st7" d="M331.96,419.02c0.3-0.5,0.59-1,0.89-1.5C332.55,418.01,332.25,418.52,331.96,419.02z"/>
		<path class="st7" d="M318.17,422.61c0.32,0.47,0.65,0.94,0.97,1.41C318.82,423.56,318.5,423.09,318.17,422.61z"/>
		<path class="st7" d="M381.22,462.34c0.36,0.52,0.72,1.04,1.07,1.56C381.56,463.63,381.23,463.1,381.22,462.34z"/>
		<path class="st7" d="M240.81,411.03c0.08,0.21,0.19,0.42,0.25,0.63c0.03,0.1-0.04,0.23-0.07,0.35c-0.16-0.22-0.34-0.42-0.46-0.66
			C240.5,411.3,240.71,411.14,240.81,411.03z"/>
		<path class="st7" d="M360.17,440.52c0.3,0.49,0.6,0.97,0.89,1.46C360.77,441.5,360.47,441.01,360.17,440.52z"/>
		<path class="st7" d="M243.28,424.32c0.26,0.56,0.51,1.12,0.77,1.69C243.79,425.45,243.53,424.89,243.28,424.32z"/>
		<path class="st7" d="M357.9,445.17c-0.28-0.39-0.56-0.78-0.84-1.18C357.34,444.39,357.62,444.78,357.9,445.17z"/>
		<path class="st7" d="M307.15,385.7c0.25,0.43,0.5,0.86,0.75,1.29C307.65,386.56,307.4,386.13,307.15,385.7z"/>
		<path class="st7" d="M306.17,383.62c0.28,0.46,0.56,0.93,0.85,1.39C306.74,384.55,306.46,384.09,306.17,383.62z"/>
		<path class="st16" d="M233.17,560.04c-0.36,0.22-0.73,0.44-1.09,0.66C232.44,560.48,232.8,560.26,233.17,560.04z"/>
		<path class="st7" d="M315.81,428.69c-0.36-0.53-0.72-1.05-1.09-1.58C315.47,427.38,315.81,427.92,315.81,428.69z"/>
		<path class="st7" d="M258.2,453.52c0.32,0.48,0.64,0.96,0.96,1.44C258.84,454.48,258.52,454,258.2,453.52z"/>
		<path class="st7" d="M343.95,374.15c-0.08-0.27-0.2-0.54-0.23-0.81c-0.01-0.1,0.18-0.23,0.28-0.34
			C343.99,373.38,343.97,373.76,343.95,374.15z"/>
		<path class="st7" d="M348.97,371.02c-0.07,0.33-0.14,0.65-0.21,0.98c-0.06-0.25-0.16-0.5-0.17-0.75
			C348.59,371.17,348.84,371.09,348.97,371.02z"/>
		<path class="st7" d="M301.18,369.6c0.27,0.47,0.53,0.94,0.8,1.41C301.72,370.54,301.45,370.07,301.18,369.6z"/>
		<path class="st7" d="M245.34,429.28c0.2,0.57,0.39,1.14,0.59,1.72C245.73,430.42,245.54,429.85,245.34,429.28z"/>
		<path class="st7" d="M300.17,366.66c0.25,0.45,0.51,0.89,0.76,1.34C300.67,367.55,300.42,367.11,300.17,366.66z"/>
		<path class="st7" d="M358.76,446.72c-0.31-0.55-0.61-1.1-0.92-1.64C358.56,445.39,358.84,445.96,358.76,446.72z"/>
		<path class="st7" d="M294.88,365.48c-0.37-0.45-0.74-0.91-1.11-1.36C294.14,364.57,294.51,365.02,294.88,365.48z"/>
		<path class="st7" d="M296.16,360.68c0.31,0.44,0.63,0.88,0.94,1.32C296.78,361.56,296.47,361.12,296.16,360.68z"/>
		<path class="st7" d="M247.32,435.25c0.31,0.56,0.61,1.12,0.92,1.68C247.53,436.6,247.24,436.02,247.32,435.25z"/>
		<path class="st7" d="M389.35,473.12c-0.46,0.39-0.92,0.78-1.38,1.18C388.43,473.9,388.89,473.51,389.35,473.12z"/>
		<path class="st7" d="M387.03,474.5c-0.82-0.1-1.22-0.63-1.42-1.37C386.39,473.28,386.85,473.75,387.03,474.5z"/>
		<path class="st7" d="M265.91,203.06c0.13,0.66-0.21,1.01-0.78,1.21C265.38,203.87,265.65,203.46,265.91,203.06z"/>
		<path class="st7" d="M285.89,355.48c-0.54-0.4-1.08-0.8-1.62-1.2C285.11,354.27,285.67,354.65,285.89,355.48z"/>
		<path class="st7" d="M381.93,469.21c-0.63-0.17-1.09-0.48-1.06-1.23C381.22,468.39,381.58,468.8,381.93,469.21z"/>
		<path class="st7" d="M278.03,351.93c-0.32-0.09-0.64-0.19-0.95-0.28C277.54,351.24,277.83,351.44,278.03,351.93z"/>
		<path class="st7" d="M391.16,465.58c0.36,0.44,0.72,0.89,1.08,1.33C391.88,466.47,391.52,466.03,391.16,465.58z"/>
		<path class="st7" d="M260.03,236.96c-0.35-0.3-0.71-0.59-1.06-0.89C259.32,236.36,259.67,236.66,260.03,236.96z"/>
		<path class="st7" d="M255.08,449.89C255.7,450,256,450.37,256,451C255.7,450.63,255.39,450.26,255.08,449.89z"/>
		<path class="st20" d="M667.06,472.78c-3.19,8.58-8.26,15.3-16.27,19.58c-1.81,0.97-0.21,1.91,0.76,2.44
			c6.09,3.33,11.89,7.25,18.65,9.25c4.15,1.23,6.83,4.51,8.34,8.1c5.66,13.51,6.74,27.63,4.3,42.02c-0.38,2.24-1.32,4.73-4.12,5.04
			c-2.39,0.26-2.59-3.17-3.2-3.33c-6.22-1.61-5.87-10.54-12.85-11.2c-1.44-0.14-3.06-1.5-4.04-2.74c-2.83-3.6-6-5.52-10.69-3.78
			c-0.95,0.35-1.95-0.36-2.61-1.16c-3.54-4.31-7.78-3.28-12.05-1.56c-10.41,4.21-20.83,6.86-31.93,2.12
			c-2.97-1.27-6.44-1.81-9.21,1.26c-1.45,1.61-3.23,1.49-4.9,0.11c-2.85-2.35-6.28-2.79-9.79-2.99c-0.66-0.04-1.64-0.35-1.95-0.03
			c-4.33,4.46-9.96,2.82-15.08,3.14c-7.26,0.45-12.47,5.39-18.75,7.95c-2.9,1.18-6.46,1.05-7.61,4.96
			c-0.15,0.51-1.56,1.14-2.13,0.94c-3.62-1.24-5.98,0.38-8.15,3.02c-1.07,1.3-2.64,1.26-4.12,0.52c-0.59-0.3-1.25-1.12-1.67-1
			c-8.51,2.49-7.03-4.86-8.85-8.92c-2.75-6.13-1.76-13.1-0.33-18.64c1.28-4.97,1.81-12.22,9.1-14.93c3.26-1.21,3.53-6.6,7.12-8.64
			c0.81-0.46,1.47-1.71,2.43-1.18c4.79,2.64,7.76-0.34,10.7-3.32c1.66-1.69,3.29-2.52,4.94-0.27c1.49,2.03,2.53,1.61,4.42,0.3
			c4.51-3.12,9.65-4.73,15.21-4.71c0.33,0,0.87,0.2,0.95,0.07c2.45-3.79,5.02-4.92,7.93-0.45c0.61-0.51,1.28-0.96,1.82-1.54
			c0.7-0.75,1.66-1.85,2.46-1.38c5.41,3.19,11.27-1.69,17.09,1.41c2.59,1.38,6.96-1.91,10.78-2.4c2.67-0.34,5.06-0.35,7.75,0.05
			c13.23,1.96,26.14,0.56,38.41-5c5.36-2.43,8.36-7.07,9.92-12.5c2.34-8.15,1.58-16.12-0.43-24.46
			c-2.95-12.24-9.97-22.32-15.31-33.29c-2.05-4.2-2.01-8.64-2.71-13.04c-1.42-8.87-3.34-17.61-8.65-25.2
			c-1.01-1.45-1.85-3.66,0.39-4.69c1.97-0.9,3.08,0.76,4.27,2.4c6.8,9.39,8.41,20.57,10.09,31.42c1.1,7.1,5.06,12.23,8.49,17.66
			c7.21,11.43,12.96,23.09,12.41,37.01c-0.05,1.27-0.12,2.34,0.96,3.59c6.94,8.1,14.59,15.79,20.24,24.74
			c7.67,12.16,12.96,25.53,12.51,40.48c-0.1,3.12,0.76,6.26,0.88,9.4c0.07,1.79-0.19,3.69-0.77,5.38c-0.6,1.76-2.04,3.48-4.03,3.1
			c-2.34-0.45-1.22-2.63-1.18-4.15c0.29-12.03-0.93-23.98-5.66-35.01c-2.83-6.59-7.41-12.58-11.95-18.24
			c-4.06-5.06-8.23-9.91-10.53-16.09C668.65,473.88,667.94,473.55,667.06,472.78z"/>
		<path class="st21" d="M461.86,300.44c-9.69-0.43-18.41,0.27-26.71,3.82c-1.67,0.71-3.42,0.76-4.27-1.13
			c-0.63-1.41,0.71-2.01,1.78-2.5c11.51-5.24,23.49-8.72,35.81-11.71c13.81-3.36,24.71,3.07,36.26,7.73
			c19.04,7.68,38.24,14.27,59.2,13.32c3.67-0.17,11.22,5.76,11.9,9.49c0.59,3.23-2.54,3.37-4.31,4.63c-1.39,0.98-4.56,0.3-4.13,2.58
			c0.39,2.05,3.17,0.94,4.8,0.92c9.71-0.09,16.78-5.54,23.23-12c4.98-4.99,8.46-11.04,11.71-17.23c0.7-1.34,1.52-3.17,3.24-2.22
			c1.63,0.9-0.1,2.34-0.44,3.48c-2.17,7.48-6.65,13.7-10.96,20.02c-6.78,9.94-29.24,18.44-41.03,9.2
			c-4.32-3.38-10.02-0.04-15.04-1.24c-1.5-0.36-1.26,1.94-0.97,3.19c0.65,2.74,1.52,5.44,2.07,8.2c0.25,1.24,0.29,2.93-1.37,3.34
			c-1.75,0.43-2.08-1.09-2.54-2.39c-0.99-2.81-2.65-5.5-3.04-8.38c-0.84-6.24-5.63-7.15-10.23-8.51c-1.58-0.47-3.65-0.25-4.77-1.2
			c-8.14-6.89-16.83-3.43-25.46-1.69c-6.68,1.35-13.35,2.79-20.07,3.88c-3.14,0.51-5.01,1.25-5.3,5.02
			c-0.29,3.76-1.68,7.43-1.34,11.32c0.13,1.46-0.35,2.75-2.15,2.66c-1.55-0.07-1.93-1.44-1.77-2.55c0.83-5.68,0.23-11.63,2.79-16.98
			c1.06-2.2,3.32-3,5.66-3.7c8.65-2.58,17.57-3.53,26.47-4.66c1.22-0.16,3.09,0.51,3.36-1.26c0.28-1.82-1.66-1.57-2.79-2.1
			c-3.45-1.63-7.05-3.07-10.23-5.13C481.91,300.67,471.66,299.75,461.86,300.44z"/>
		<path class="st22" d="M548.91,468.92c-14.11,10.43-28.17,20.99-40.85,33.08c-9.16,8.73-18.06,18.17-20.44,31.54
			c-1.87,10.54-1.87,21.02-0.06,31.65c1.05,6.19,1.7,12.38,4.08,18.27c1,2.48-0.41,4.36-2.58,5.21c-2.85,1.12-4.05-1.12-4.45-3.3
			c-1.83-9.9-4.97-19.55-5.63-29.66c-0.26-3.93-0.05-7.78-1.16-11.78c-0.82-2.96,0.76-6.67,1.58-9.97
			c2.86-11.52,7.92-21.4,16.43-30.4c8.96-9.48,19.49-16.36,29.57-24.14c9.42-7.26,19.7-13.49,27.72-22.51
			c2.92-3.29,7.28-2.78,9.54,0.89c0.86,1.4-0.25,2.65-1.04,3.58c-2.37,2.84-4.1,6.03-5.8,9.27c-3.59,6.81-2.46,12.01,3.64,16.46
			c1.31,0.96,3.3,1.79,2.18,3.81c-1.16,2.09-3.02,1.33-4.78,0.46c-8.55-4.22-11.08-11.78-7.28-21.87c0.03-0.38,0.23-0.96,0.06-1.09
			C549.19,468.07,548.99,468.49,548.91,468.92z"/>
		<path class="st22" d="M461.69,695.64c-0.56,0.79-0.91,1.61-1.53,2.03c-0.38,0.26-1.63,0.07-1.72-0.18
			c-1.12-3.23-4.31-3.2-6.59-3.47c-9.87-1.17-18.46-6-27.69-8.89c-10.94-3.43-21.56-7.49-31.65-12.77
			c-11.46-5.99-22.49-12.79-32.74-20.74c-1.02-0.79-1.82-1.95-2.49-3.08c-0.93-1.56,0.09-2.96,0.93-4.12
			c1.06-1.47,2.28-0.53,3.48,0.12c8.33,4.48,15.33,10.9,23.36,15.8c5.09,3.1,10.12,6.46,15.58,8.74
			c12.14,5.08,23.67,11.57,37.22,13.34c8.43,1.1,16.38,5.19,22.59,11.64C460.89,694.51,461.23,695.05,461.69,695.64z"/>
		<path class="st23" d="M617.56,586.23c-3.73-0.57-10.15,0.39-16.56,0.43c-3.25,0.02-6.31-0.28-9.04-2.06
			c-5.71-3.71-13.21-3.56-18.3-8.58c-0.7-0.69-1.62-1.18-2.27-1.91c-0.91-1.04-1.53-2.27-0.52-3.6c1-1.3,2.3-1.17,3.58-0.5
			c6.98,3.69,14.58,5.58,22.28,6.55c4.83,0.61,9.86-0.38,14.81-0.62c7.46-0.36,14.93-0.69,22.39-1.02c2.14-0.1,4.21-0.08,6.36-0.84
			c3.84-1.37,10.95,2.63,12.03,6.46c0.49,1.75-1.17,2.03-2.09,2.1C640.17,583.48,630.38,586.41,617.56,586.23z"/>
		<path class="st24" d="M541.08,357.5c-1.09,1.86-2.74,1.54-4.23,0.84c-3.99-1.88-8.36-2.13-12.54-3.17
			c-2.12-0.53-3.41-0.2-3.55,2.52c-0.19,3.74-2.41,6.55-5.38,8.6c-5.54,3.83-12.23,1.08-13.37-6.15c-0.71-4.51-2.9-4.59-6.04-3.94
			c-5.68,1.19-11.31,2.58-16.96,3.92c-1.06,0.25-2.2,1.42-3.08,0c-0.93-1.5,0.2-2.54,1.34-3.26c1.68-1.05,3.38-2.3,5.26-2.8
			c11.74-3.15,23.66-5.89,35.87-4.82c6.36,0.56,12.58,2.83,18.85,4.38C539.19,354.11,540.18,355.65,541.08,357.5z"/>
		<path class="st22" d="M701.8,356.73c-4.14,2.54-7.98-0.23-11.79-1.03c-2.4-0.5-2.97-0.59-3.24,2.12
			c-0.69,6.81-4.74,10.69-9.94,10.14c-5.1-0.53-8.34-4.82-7.87-11.36c0.23-3.24-0.88-3.73-3.57-3.27
			c-5.72,0.97-11.45,1.89-17.18,2.75c-1.04,0.16-2.55,1.08-3.07-0.43c-0.51-1.5,0.83-2.25,2.1-2.86c5.48-2.63,11.44-3.53,17.31-4.47
			c12.03-1.92,23.32,1.66,34.47,5.6C700.17,354.33,701.56,354.91,701.8,356.73z"/>
		<path class="st25" d="M263.47,406.62c0.2,2.64,0.42,5.29,0.59,7.93c0.11,1.79-0.11,3.39-2.45,3.5c-2.04,0.09-2.32-1.32-2.69-2.88
			c-1.86-7.84-0.44-15.48,1.34-23.1c0.3-1.28,1.18-2.48,0.71-3.83c-0.52-1.51-1.99-3.09-0.08-4.42c2-1.39,3.99-2.69,6.82-2.38
			c13.8,1.55,21.79,10.82,28.85,21.37c0.78,1.16,0.98,2.56-0.48,3.5c-1.53,0.99-2.5-0.24-3.44-1.08
			c-4.31-3.87-8.56-7.81-12.84-11.71c-2.63-2.39-5.9-3.62-9.06-5.1c-2.87-1.35-4.35-0.53-4.97,2.47
			C264.68,396.09,263.27,401.23,263.47,406.62z"/>
		<path class="st25" d="M289.4,417.87c4.54,0.85,10.03,2.49,14.78,6.06c1.27,0.96,3.27,1.95,2.13,3.85
			c-1.12,1.87-3.19,1.47-4.9,0.52c-4.55-2.53-9.38-4.08-14.61-4.27c-7.26-0.27-12.58,6.25-10.21,13.26
			c2.43,7.19,3.95,14.78,8.34,21.23c0.88,1.29,2.21,2.99,0.34,4.39c-1.91,1.43-3.14-0.41-4.06-1.63
			c-6.76-8.97-10.29-19.25-10.94-30.34c-0.3-5.13,3.63-8.44,7.78-10.73C281.09,418.53,284.6,417.81,289.4,417.87z"/>
		<path class="st25" d="M324.01,474.25c-0.29,4.53-5.31,5.39-8.8,7.41c-2.3,1.33-5.42,1.31-8.2,1.75c-1.56,0.24-3.2-0.12-3.62-1.87
			c-0.4-1.68,1.14-2.21,2.38-2.65c3.12-1.11,6.29-2.08,9.4-3.25c1.39-0.52,2.98-1.25,3.27-2.82c0.34-1.89-1.61-2.29-2.79-3.01
			c-4.51-2.75-9.41-4.9-12.14-9.92c-2.98-5.49,2.97-16.52,9.19-16.74c1.24-0.04,2.46,0.3,2.97,1.42c0.59,1.3-0.55,2.01-1.41,2.84
			c-8.93,8.64-8.77,9.86,1.88,16.5C319.77,466.15,323.97,467.96,324.01,474.25z"/>
		<path class="st22" d="M463.39,571.31c1.36,0.69,2.05,1.58,2.25,2.8c1.65,10.02,8.36,16.53,15.7,22.59
			c1.23,1.02,3.44,1.93,2.54,3.72c-1.07,2.12-3.4,1.55-5.34,0.8c-9.72-3.76-15.13-11.37-18.31-20.84c-0.97-2.88,0.36-5.52,1.92-7.93
			C462.47,571.97,463.02,571.64,463.39,571.31z"/>
		<path class="st17" d="M498.77,272.36c-11.9-3.73-24.11-4.66-37.53-3.73C470.19,261.47,489.44,262.75,498.77,272.36z"/>
		<path class="st17" d="M707.48,348.31c0.14,1.21-0.22,2.24-1.54,2.65c-1.47,0.45-2.81-0.2-3.4-1.37c-0.65-1.27-0.99-2.84-0.98-4.28
			c0.02-6.31-1.2-12.45-2.14-18.64c-0.21-1.37-1.03-3.4,0.71-3.87c2.03-0.55,3.36,1.27,3.81,3.11c1.35,5.6,2.55,11.23,2.89,17.01
			C706.92,344.7,706.43,346.57,707.48,348.31z"/>
		<path class="st25" d="M588.54,487.59c-4.89-0.98-9.7-1.49-14.57,0.51c-1.72,0.71-2.76-0.44-2.38-2.49
			c0.61-3.26,5.45-7.25,8.69-6.73c3.8,0.6,7.12,2.5,10.2,4.75c0.9,0.66,1.9,1.6,1.11,2.91
			C590.93,487.63,589.79,487.92,588.54,487.59z"/>
		<path class="st17" d="M362.42,848.57c0.25-1.77-0.36-3.23,0.89-3.85c1.46-0.73,2.71,0.41,3.33,1.46
			c2.73,4.64,3.39,10.32,7.33,14.42c0.76,0.8-0.1,2.17-1.28,2.83c-1.42,0.8-2.85,0.4-3.57-0.7
			C366.14,858.15,362.99,853.61,362.42,848.57z"/>
		<path class="st16" d="M215.97,505.98c-0.09,0.87,0.15,1.85-0.92,2.12c-1,0.25-1.46-0.53-1.82-1.28c-1.38-2.9-1.55-6.07-1.87-9.19
			c-0.05-0.47,0.53-1.29,1-1.48c0.96-0.4,1.61,0.39,1.8,1.19C214.84,500.22,215.39,503.14,215.97,505.98z"/>
		<path class="st26" d="M435.88,836.79c0.62,0.25,1.49,0.39,2.08,0.88c5.97,4.96,11.94,9.93,17.81,15.02
			c1.13,0.98,2.98,2.17,1.72,4.11c-1.25,1.92-3.34,1.58-4.88,0.6c-7.02-4.43-12.81-10.35-18.55-16.26
			C432.68,839.71,432.59,837.33,435.88,836.79z"/>
		<path class="st26" d="M698.19,735.82c0,2.97,0.11,5.95-0.04,8.92c-0.09,1.7-0.7,3.47-2.79,3.55c-2.31,0.09-2.41-1.88-2.64-3.51
			c-0.97-7.09-0.71-14.22-0.71-21.35c0-1.5-0.05-3.31,2-3.36c1.69-0.04,2.4,1.4,2.93,2.92
			C698.43,727.19,697.81,731.53,698.19,735.82z"/>
		<path class="st16" d="M690.92,649.49c0,3.49,0.11,6.99-0.04,10.47c-0.09,1.97-1.14,3.68-3.33,3.64c-1.95-0.04-3.01-1.82-3.02-3.44
			c-0.05-6.96-1.29-13.92-0.23-20.88c0.28-1.85,0.8-3.73,3.28-3.6c2.44,0.12,2.88,1.94,2.92,3.87c0.07,3.31,0.02,6.63,0.02,9.95
			C690.65,649.49,690.79,649.49,690.92,649.49z"/>
		<path class="st26" d="M312.59,708.91c2.93,0.69,5.15,2.93,7.1,5.39c3.09,3.89,6,7.93,9.01,11.88c0.92,1.21,2.1,2.47,0.86,3.94
			c-1.33,1.56-3.18,1.2-4.46,0c-5.57-5.24-10.62-10.96-14.76-17.4C309.32,711.14,309.26,709.04,312.59,708.91z"/>
		<path class="st26" d="M370.62,776.17c0.74,0.37,1.96,0.67,2.77,1.42c5.5,5.05,10.93,10.17,16.33,15.32
			c1.4,1.33,2.37,3.07,0.9,4.82c-1.41,1.67-3.11,0.7-4.44-0.34c-6.01-4.72-11.74-9.75-17.18-15.12c-1.32-1.3-1.72-2.86-1.12-4.56
			C368.24,776.68,369.16,776.22,370.62,776.17z"/>
		<path class="st26" d="M254.6,640.19c0.28-2.02-0.14-3.45,1.24-3.94c1.49-0.54,2.98-0.29,4,1.12c2.12,2.96,4.19,5.95,6.3,8.91
			c2.4,3.36,4.87,6.67,7.23,10.06c0.78,1.12,1.17,2.46,0.06,3.65c-1.05,1.13-2.52,1.38-3.59,0.41
			C263.27,654.47,258.78,647.02,254.6,640.19z"/>
		<path class="st1" d="M548.91,468.92c0.09-0.43,0.29-0.85,0.74-0.5c0.16,0.12-0.03,0.71-0.06,1.09
			C549.34,469.34,549.11,469.14,548.91,468.92z"/>
	</g>
</g>
</svg>
